<svg xmlns="http://www.w3.org/2000/svg" width="69.654" height="60.507" viewBox="0 0 69.654 60.507">
  <g id="photo-camera" transform="translate(0 -33.859)">
    <g id="Group_386" data-name="Group 386" transform="translate(0 33.859)">
      <path id="Path_21464" data-name="Path 21464" d="M60.316,45.417l-7.31-.038L46,34.931a2.316,2.316,0,0,0-1.914-1.072H25.221a2.307,2.307,0,0,0-1.875,1.033L16.112,45.379l-6.774.038A9.376,9.376,0,0,0,0,54.755v30.2a9.442,9.442,0,0,0,9.338,9.415H60.316a9.442,9.442,0,0,0,9.338-9.415v-30.2A9.376,9.376,0,0,0,60.316,45.417Zm4.746,39.535a4.836,4.836,0,0,1-4.746,4.822H9.338a4.836,4.836,0,0,1-4.746-4.822v-30.2A4.77,4.77,0,0,1,9.338,50.01h8a2.307,2.307,0,0,0,1.875-1.033L26.446,38.49H42.864L49.83,48.9a2.362,2.362,0,0,0,1.875,1.033l8.573.077a4.77,4.77,0,0,1,4.746,4.746v30.2h.038Z" transform="translate(0 -33.859)" fill="#fff"/>
      <path id="Path_21465" data-name="Path 21465" d="M155.1,160.225a16.265,16.265,0,1,0,16.265,16.265A16.276,16.276,0,0,0,155.1,160.225Zm0,27.938a11.673,11.673,0,1,1,11.673-11.673A11.695,11.695,0,0,1,155.1,188.163Z" transform="translate(-120.08 -143.156)" fill="#fff"/>
      <circle id="Ellipse_63" data-name="Ellipse 63" cx="0.88" cy="0.88" r="0.88" transform="translate(55.915 22.925)" fill="#fff"/>
      <path id="Path_21466" data-name="Path 21466" d="M400.127,186.575a3.177,3.177,0,1,0,3.177,3.177A3.169,3.169,0,0,0,400.127,186.575Zm0,4.593a1.413,1.413,0,0,1-1.416-1.416,1.416,1.416,0,1,1,2.832,0A1.413,1.413,0,0,1,400.127,191.168Z" transform="translate(-343.331 -165.947)" fill="#fff"/>
    </g>
  </g>
</svg>
