<svg xmlns="http://www.w3.org/2000/svg" width="1019.021" height="347.4" viewBox="0 0 1019.021 347.4">
  <g id="colin-turkington-logo" transform="translate(0.001 0.001)">
    <g id="Group_392" data-name="Group 392">
      <path id="Path_21520" data-name="Path 21520" d="M189.43,155.22h-26a10.557,10.557,0,0,1-2.15-.24,11.314,11.314,0,0,1-2.27-.73,10.39,10.39,0,0,1-2.15-1.29,8.959,8.959,0,0,1-1.82-1.91,9.3,9.3,0,0,1-1.26-2.61,11.136,11.136,0,0,1-.47-3.34V125.59a10.557,10.557,0,0,1,.24-2.15,11.314,11.314,0,0,1,.73-2.27,10.442,10.442,0,0,1,1.3-2.15,9.157,9.157,0,0,1,4.52-3.08,11.021,11.021,0,0,1,3.33-.47h26v7.21h-26a2.924,2.924,0,0,0-2.16.75,3.011,3.011,0,0,0-.75,2.22v19.46a2.645,2.645,0,0,0,2.91,2.91h26v7.2Z" fill="#fff"/>
      <path id="Path_21521" data-name="Path 21521" d="M243.06,139.14a17.5,17.5,0,0,1-1.25,6.68,15.985,15.985,0,0,1-3.46,5.27,15.668,15.668,0,0,1-5.25,3.45,17.434,17.434,0,0,1-6.61,1.23h-9.76a17.523,17.523,0,0,1-6.62-1.23,15.654,15.654,0,0,1-5.27-3.45,15.932,15.932,0,0,1-3.48-5.27,17.352,17.352,0,0,1-1.26-6.68v-7.59a17.41,17.41,0,0,1,1.26-6.67,15.583,15.583,0,0,1,8.75-8.72,17.376,17.376,0,0,1,6.62-1.25h9.76a17.252,17.252,0,0,1,6.61,1.25,15.976,15.976,0,0,1,5.25,3.45,15.533,15.533,0,0,1,3.46,5.27,17.522,17.522,0,0,1,1.25,6.67Zm-7.2-7.6a10.621,10.621,0,0,0-.68-3.87,8.671,8.671,0,0,0-1.91-2.97,8.347,8.347,0,0,0-2.97-1.91,10.411,10.411,0,0,0-3.81-.68h-9.76a10.535,10.535,0,0,0-3.84.68,8.714,8.714,0,0,0-2.98,1.91,8.53,8.53,0,0,0-1.93,2.97,10.545,10.545,0,0,0-.68,3.87v7.59a10.621,10.621,0,0,0,.68,3.87,8.345,8.345,0,0,0,1.93,2.97,8.62,8.62,0,0,0,2.98,1.91,10.458,10.458,0,0,0,3.84.68h9.7a10.535,10.535,0,0,0,3.84-.68,8.714,8.714,0,0,0,2.98-1.91,8.53,8.53,0,0,0,1.93-2.97,10.545,10.545,0,0,0,.68-3.87v-7.59Z" fill="#fff"/>
      <path id="Path_21522" data-name="Path 21522" d="M292.37,155.22H259.49a3.591,3.591,0,0,1-1.44-.28,3.445,3.445,0,0,1-1.91-1.91,3.591,3.591,0,0,1-.28-1.44V115.47h7.21v32.54h29.3v7.21Z" fill="#fff"/>
      <path id="Path_21523" data-name="Path 21523" d="M310.6,155.22h-7.21V115.47h7.21Z" fill="#fff"/>
      <path id="Path_21524" data-name="Path 21524" d="M364.43,152.14a3.6,3.6,0,0,1-.29,1.44,3.547,3.547,0,0,1-.78,1.15,3.5,3.5,0,0,1-1.15.76,3.733,3.733,0,0,1-1.41.28,3.776,3.776,0,0,1-1.34-.25,3.279,3.279,0,0,1-1.21-.8l-26.33-27.5v28h-7.21V118.55a3.487,3.487,0,0,1,.62-2.01,3.875,3.875,0,0,1,1.59-1.34,3.631,3.631,0,0,1,2.11-.21,3.49,3.49,0,0,1,1.86,1.01l26.33,27.47v-28h7.21v36.67Z" fill="#fff"/>
      <path id="Path_21525" data-name="Path 21525" d="M414.4,122.67H398.52v32.54h-7.21V122.67H375.4v-7.21h39Z" fill="#fff"/>
      <path id="Path_21526" data-name="Path 21526" d="M464.31,151.58a3.591,3.591,0,0,1-.28,1.44,3.4,3.4,0,0,1-.78,1.15,3.647,3.647,0,0,1-1.16.76,3.515,3.515,0,0,1-1.41.28H444.44a22.666,22.666,0,0,1-4.66-.5,20.768,20.768,0,0,1-4.56-1.54,19.388,19.388,0,0,1-4.14-2.65,17.3,17.3,0,0,1-3.4-3.81,18.762,18.762,0,0,1-2.29-5.04,22.671,22.671,0,0,1-.83-6.33V115.47h7.21v19.87a13.8,13.8,0,0,0,.85,5.16,11.391,11.391,0,0,0,2.15,3.52,10.582,10.582,0,0,0,2.85,2.22,15.185,15.185,0,0,0,2.95,1.19,14.669,14.669,0,0,0,2.47.49c.71.06,1.18.1,1.4.1h12.67V115.48h7.21v36.1h-.01Z" fill="#fff"/>
      <path id="Path_21527" data-name="Path 21527" d="M516.94,128.83a14.647,14.647,0,0,1-.61,4.41,12.483,12.483,0,0,1-1.65,3.42,11.621,11.621,0,0,1-2.4,2.54,14.494,14.494,0,0,1-2.84,1.73,13.753,13.753,0,0,1-2.99.98,14.609,14.609,0,0,1-2.84.3l15.05,13H507.52l-15.02-13h-5.18V135h16.3a8.045,8.045,0,0,0,2.48-.57,6.3,6.3,0,0,0,1.94-1.23,5.28,5.28,0,0,0,1.26-1.87,6.574,6.574,0,0,0,.44-2.51v-4.55a2.244,2.244,0,0,0-.15-.93,1.087,1.087,0,0,0-.39-.47,1.163,1.163,0,0,0-.5-.18,4.425,4.425,0,0,0-.49-.03H484.43V155.2h-7.21V119.08a3.515,3.515,0,0,1,.28-1.41,3.647,3.647,0,0,1,.76-1.16,3.547,3.547,0,0,1,1.15-.78,3.771,3.771,0,0,1,1.44-.28h27.36a8.657,8.657,0,0,1,4.07.87,8.183,8.183,0,0,1,2.7,2.19,8.64,8.64,0,0,1,1.5,2.84,10.172,10.172,0,0,1,.46,2.85v4.63Z" fill="#fff"/>
      <path id="Path_21528" data-name="Path 21528" d="M535.98,155.22h-7.21V115.47h7.21Zm34.4,0H560.15l-16.22-16.24h-5.07v-7.26h5.07l16.22-16.24h10.23l-20.43,19.87Z" fill="#fff"/>
      <path id="Path_21529" data-name="Path 21529" d="M586.7,155.22h-7.21V115.47h7.21Z" fill="#fff"/>
      <path id="Path_21530" data-name="Path 21530" d="M637.12,152.14a3.6,3.6,0,0,1-.29,1.44,3.546,3.546,0,0,1-.78,1.15,3.6,3.6,0,0,1-1.15.76,3.732,3.732,0,0,1-1.41.28,3.777,3.777,0,0,1-1.34-.25,3.2,3.2,0,0,1-1.21-.8l-26.33-27.5v28H597.4V118.55a3.487,3.487,0,0,1,.62-2.01,3.875,3.875,0,0,1,1.59-1.34,3.631,3.631,0,0,1,2.11-.21,3.49,3.49,0,0,1,1.86,1.01l26.33,27.47v-28h7.21v36.67Z" fill="#fff"/>
      <path id="Path_21531" data-name="Path 21531" d="M690.39,151.58a3.591,3.591,0,0,1-.28,1.44,3.659,3.659,0,0,1-.76,1.15,3.5,3.5,0,0,1-1.15.76,3.591,3.591,0,0,1-1.44.28h-26a10.557,10.557,0,0,1-2.15-.24,11.314,11.314,0,0,1-2.27-.73,10.391,10.391,0,0,1-2.15-1.29,8.959,8.959,0,0,1-1.82-1.91,9.3,9.3,0,0,1-1.26-2.61,11.136,11.136,0,0,1-.47-3.34V125.58a10.559,10.559,0,0,1,.24-2.15,11.315,11.315,0,0,1,.73-2.27,10.444,10.444,0,0,1,1.3-2.15,9.157,9.157,0,0,1,4.52-3.08,11.021,11.021,0,0,1,3.33-.47h29.3v7.21h-29.3a2.924,2.924,0,0,0-2.16.75,3.011,3.011,0,0,0-.75,2.22V145.1a2.645,2.645,0,0,0,2.91,2.91h22.42v-9.04H664v-7.26h22.76a3.576,3.576,0,0,1,2.59,1.08,3.716,3.716,0,0,1,.76,1.15,3.606,3.606,0,0,1,.28,1.4v16.24Z" fill="#fff"/>
      <path id="Path_21532" data-name="Path 21532" d="M739.5,122.67H723.62v32.54h-7.21V122.67H700.5v-7.21h39Z" fill="#fff"/>
      <path id="Path_21533" data-name="Path 21533" d="M790.48,139.14a17.5,17.5,0,0,1-1.25,6.68,15.985,15.985,0,0,1-3.46,5.27,15.569,15.569,0,0,1-5.25,3.45,17.434,17.434,0,0,1-6.61,1.23h-9.76a17.523,17.523,0,0,1-6.62-1.23,15.655,15.655,0,0,1-5.27-3.45,15.931,15.931,0,0,1-3.48-5.27,17.352,17.352,0,0,1-1.26-6.68v-7.59a17.409,17.409,0,0,1,1.26-6.67,15.583,15.583,0,0,1,8.75-8.72,17.339,17.339,0,0,1,6.62-1.25h9.76a17.251,17.251,0,0,1,6.61,1.25,15.977,15.977,0,0,1,5.25,3.45,15.534,15.534,0,0,1,3.46,5.27,17.522,17.522,0,0,1,1.25,6.67Zm-7.2-7.6a10.621,10.621,0,0,0-.68-3.87,8.672,8.672,0,0,0-1.91-2.97,8.485,8.485,0,0,0-2.97-1.91,10.449,10.449,0,0,0-3.81-.68h-9.76a10.535,10.535,0,0,0-3.84.68,8.619,8.619,0,0,0-2.98,1.91,8.53,8.53,0,0,0-1.93,2.97,10.545,10.545,0,0,0-.68,3.87v7.59a10.621,10.621,0,0,0,.68,3.87,8.345,8.345,0,0,0,1.93,2.97,8.714,8.714,0,0,0,2.98,1.91,10.458,10.458,0,0,0,3.84.68h9.7a10.535,10.535,0,0,0,3.84-.68,8.619,8.619,0,0,0,2.98-1.91A8.53,8.53,0,0,0,782.6,143a10.545,10.545,0,0,0,.68-3.87v-7.59Z" fill="#fff"/>
      <path id="Path_21534" data-name="Path 21534" d="M841.87,152.14a3.6,3.6,0,0,1-.29,1.44,3.546,3.546,0,0,1-.78,1.15,3.6,3.6,0,0,1-1.15.76,3.732,3.732,0,0,1-1.41.28,3.777,3.777,0,0,1-1.34-.25,3.2,3.2,0,0,1-1.21-.8l-26.33-27.5v28h-7.21V118.55a3.487,3.487,0,0,1,.62-2.01,3.875,3.875,0,0,1,1.59-1.34,3.631,3.631,0,0,1,2.11-.21,3.49,3.49,0,0,1,1.86,1.01l26.33,27.47v-28h7.21v36.67Z" fill="#fff"/>
      <path id="Path_21535" data-name="Path 21535" d="M861.13,151.58a3.439,3.439,0,0,1-.29,1.4,3.73,3.73,0,0,1-.78,1.14,3.4,3.4,0,0,1-1.14.76,3.359,3.359,0,0,1-1.37.28,3.434,3.434,0,0,1-1.4-.28,3.671,3.671,0,0,1-1.14-.76,3.3,3.3,0,0,1-.76-1.14,3.606,3.606,0,0,1-.28-1.4,3.359,3.359,0,0,1,.28-1.37,3.616,3.616,0,0,1,1.9-1.92,3.439,3.439,0,0,1,1.4-.29,3.368,3.368,0,0,1,1.37.29,3.73,3.73,0,0,1,1.14.78,3.843,3.843,0,0,1,.78,1.14A3.243,3.243,0,0,1,861.13,151.58Z" fill="#fff"/>
      <path id="Path_21536" data-name="Path 21536" d="M907.69,155.22h-26a10.557,10.557,0,0,1-2.15-.24,11.314,11.314,0,0,1-2.27-.73,10.391,10.391,0,0,1-2.15-1.29,8.959,8.959,0,0,1-1.82-1.91,9.3,9.3,0,0,1-1.26-2.61,11.136,11.136,0,0,1-.47-3.34V125.59a10.559,10.559,0,0,1,.24-2.15,11.315,11.315,0,0,1,.73-2.27,10.444,10.444,0,0,1,1.3-2.15,9.157,9.157,0,0,1,4.52-3.08,11.021,11.021,0,0,1,3.33-.47h26v7.21h-26a2.924,2.924,0,0,0-2.16.75,3.011,3.011,0,0,0-.75,2.22v19.46a2.645,2.645,0,0,0,2.91,2.91h26Z" fill="#fff"/>
      <path id="Path_21537" data-name="Path 21537" d="M960.2,139.14a17.5,17.5,0,0,1-1.25,6.68,15.985,15.985,0,0,1-3.46,5.27,15.569,15.569,0,0,1-5.25,3.45,17.434,17.434,0,0,1-6.61,1.23h-9.76a17.523,17.523,0,0,1-6.62-1.23,15.655,15.655,0,0,1-5.27-3.45,15.931,15.931,0,0,1-3.48-5.27,17.352,17.352,0,0,1-1.26-6.68v-7.59a17.409,17.409,0,0,1,1.26-6.67,15.583,15.583,0,0,1,8.75-8.72,17.339,17.339,0,0,1,6.62-1.25h9.76a17.251,17.251,0,0,1,6.61,1.25,15.977,15.977,0,0,1,5.25,3.45,15.534,15.534,0,0,1,3.46,5.27,17.522,17.522,0,0,1,1.25,6.67Zm-7.21-7.6a10.621,10.621,0,0,0-.68-3.87,8.672,8.672,0,0,0-1.91-2.97,8.485,8.485,0,0,0-2.97-1.91,10.449,10.449,0,0,0-3.81-.68h-9.76a10.535,10.535,0,0,0-3.84.68,8.619,8.619,0,0,0-2.98,1.91,8.53,8.53,0,0,0-1.93,2.97,10.545,10.545,0,0,0-.68,3.87v7.59a10.621,10.621,0,0,0,.68,3.87,8.345,8.345,0,0,0,1.93,2.97,8.714,8.714,0,0,0,2.98,1.91,10.458,10.458,0,0,0,3.84.68h9.7a10.535,10.535,0,0,0,3.84-.68,8.619,8.619,0,0,0,2.98-1.91,8.53,8.53,0,0,0,1.93-2.97,10.545,10.545,0,0,0,.68-3.87v-7.59Z" fill="#fff"/>
      <path id="Path_21538" data-name="Path 21538" d="M1018.13,155.22h-7.26V131.55l-12.78,22.48a3.067,3.067,0,0,1-1.32,1.3,3.8,3.8,0,0,1-1.82.44,3.7,3.7,0,0,1-1.76-.44,3.168,3.168,0,0,1-1.29-1.3l-12.83-22.48v23.67h-7.21V118.55a3.587,3.587,0,0,1,.73-2.22,3.506,3.506,0,0,1,1.93-1.3,4.175,4.175,0,0,1,1.16-.1,3.875,3.875,0,0,1,1.12.25,3.341,3.341,0,0,1,.98.58,3.67,3.67,0,0,1,.75.9l16.41,28.52,16.41-28.52a3.577,3.577,0,0,1,1.76-1.5,3.738,3.738,0,0,1,2.34-.14,3.62,3.62,0,0,1,1.91,1.3,3.524,3.524,0,0,1,.75,2.22v36.68Z" fill="#fff"/>
    </g>
    <g id="Group_393" data-name="Group 393">
      <path id="Path_21539" data-name="Path 21539" d="M410.7,181.59a5.251,5.251,0,0,1-.23,1.45,4.189,4.189,0,0,1-2.13,2.53,4.463,4.463,0,0,1-2.07.44H392.4a1.937,1.937,0,0,1-.73-.14,1.649,1.649,0,0,1-.58-.39,1.971,1.971,0,0,1-.39-.58,1.761,1.761,0,0,1-.14-.73V167.7a1.963,1.963,0,0,1,.14-.72,1.785,1.785,0,0,1,.39-.59,1.649,1.649,0,0,1,.58-.39,1.976,1.976,0,0,1,.73-.14h12.23a4.934,4.934,0,0,1,1.45.24,4.286,4.286,0,0,1,2.55,2.14,4.463,4.463,0,0,1,.44,2.07V171a7.762,7.762,0,0,1-.32,2.09,6.807,6.807,0,0,1-1.04,2.11,6.635,6.635,0,0,1,1.16.91,5.905,5.905,0,0,1,.95,1.24,6.7,6.7,0,0,1,.65,1.59,7.44,7.44,0,0,1,.24,1.95l-.01.7Zm-3.65-.7a3.491,3.491,0,0,0-.22-1.29,2.849,2.849,0,0,0-.63-.98,2.689,2.689,0,0,0-.98-.62,3.491,3.491,0,0,0-1.29-.22h-8.24V174.1h6.59a3.491,3.491,0,0,0,1.29-.22,2.689,2.689,0,0,0,.98-.62,2.849,2.849,0,0,0,.63-.98,3.491,3.491,0,0,0,.22-1.29v-.69c0-.52-.25-.79-.76-.79H394.22v12.85h12.06a2.094,2.094,0,0,0,.24-.01.668.668,0,0,0,.25-.08.708.708,0,0,0,.2-.24,1,1,0,0,0,.08-.46v-.68Z" fill="#fff"/>
      <path id="Path_21540" data-name="Path 21540" d="M436.9,172.64a7.285,7.285,0,0,1-.31,2.23,6.246,6.246,0,0,1-.84,1.74,6,6,0,0,1-1.22,1.29,7.227,7.227,0,0,1-1.44.88,6.764,6.764,0,0,1-1.52.5,7.5,7.5,0,0,1-1.44.15l7.63,6.59h-5.65l-7.62-6.59h-2.63v-3.65h8.27a4.153,4.153,0,0,0,1.26-.29,2.981,2.981,0,0,0,.98-.62,2.615,2.615,0,0,0,.64-.95,3.344,3.344,0,0,0,.23-1.27v-2.3a1.137,1.137,0,0,0-.08-.47.539.539,0,0,0-.2-.24.581.581,0,0,0-.25-.09,2.176,2.176,0,0,0-.25-.01H420.4v16.5h-3.65V167.73a1.963,1.963,0,0,1,.14-.72,1.785,1.785,0,0,1,.39-.59,1.649,1.649,0,0,1,.58-.39,1.937,1.937,0,0,1,.73-.14h13.87a4.521,4.521,0,0,1,2.07.44,4.209,4.209,0,0,1,1.37,1.11,4.543,4.543,0,0,1,.76,1.44,5.2,5.2,0,0,1,.23,1.45l.01,2.31Z" fill="#fff"/>
      <path id="Path_21541" data-name="Path 21541" d="M447.13,186.02h-3.65V165.86h3.65Z" fill="#fff"/>
      <path id="Path_21542" data-name="Path 21542" d="M472.5,169.52h-8.05v16.5H460.8v-16.5h-8.07v-3.65h19.78v3.65Z" fill="#fff"/>
      <path id="Path_21543" data-name="Path 21543" d="M481.74,186.02h-3.65V165.86h3.65Z" fill="#fff"/>
      <path id="Path_21544" data-name="Path 21544" d="M508.26,180.09a6.566,6.566,0,0,1-.27,1.95,5.84,5.84,0,0,1-.72,1.53,4.506,4.506,0,0,1-1.05,1.12,6.414,6.414,0,0,1-2.56,1.2,6.391,6.391,0,0,1-1.26.14H488.3v-3.65h14.1a2.163,2.163,0,0,0,1.64-.62,2.3,2.3,0,0,0,.58-1.66,2.749,2.749,0,0,0-.15-.93,2.16,2.16,0,0,0-.44-.73,1.9,1.9,0,0,0-.7-.48,2.433,2.433,0,0,0-.92-.17H494a6.524,6.524,0,0,1-1.91-.32,5.66,5.66,0,0,1-1.9-1.02,5.516,5.516,0,0,1-1.46-1.84,6.953,6.953,0,0,1,0-5.56,5.643,5.643,0,0,1,1.46-1.84,5.975,5.975,0,0,1,1.9-1.03,6.524,6.524,0,0,1,1.91-.32h12.44v3.65H494a2.1,2.1,0,0,0-1.62.63,2.359,2.359,0,0,0-.58,1.67,2.326,2.326,0,0,0,.58,1.67,2.126,2.126,0,0,0,1.62.61h8.44a6.39,6.39,0,0,1,1.25.16,6.018,6.018,0,0,1,1.31.46,6.449,6.449,0,0,1,1.24.78,5.417,5.417,0,0,1,1.05,1.13,5.475,5.475,0,0,1,.72,1.52A6.931,6.931,0,0,1,508.26,180.09Z" fill="#fff"/>
      <path id="Path_21545" data-name="Path 21545" d="M517.86,174.1h12.83v-8.24h3.65v20.16h-3.65v-8.24H517.86v8.24H514.2V165.86h3.66Z" fill="#fff"/>
      <path id="Path_21546" data-name="Path 21546" d="M571.65,169.52H563.6v16.5h-3.65v-16.5h-8.07v-3.65h19.78v3.65Z" fill="#fff"/>
      <path id="Path_21547" data-name="Path 21547" d="M598.09,177.87a8.9,8.9,0,0,1-.63,3.39,7.912,7.912,0,0,1-4.42,4.42,8.763,8.763,0,0,1-3.35.63h-4.95a8.814,8.814,0,0,1-3.36-.63,7.889,7.889,0,0,1-4.43-4.42,8.712,8.712,0,0,1-.64-3.39v-3.85a8.733,8.733,0,0,1,.64-3.38,7.889,7.889,0,0,1,4.43-4.42,8.814,8.814,0,0,1,3.36-.63h4.95a8.726,8.726,0,0,1,3.35.63,7.912,7.912,0,0,1,4.42,4.42,8.917,8.917,0,0,1,.63,3.38Zm-3.66-3.85a5.3,5.3,0,0,0-.34-1.96,4.181,4.181,0,0,0-.97-1.5,4.361,4.361,0,0,0-1.5-.97,5.218,5.218,0,0,0-1.93-.34h-4.95a5.542,5.542,0,0,0-1.95.34,4.175,4.175,0,0,0-1.51.97,4.385,4.385,0,0,0-.98,1.5,5.342,5.342,0,0,0-.34,1.96v3.85a5.3,5.3,0,0,0,.34,1.96,4.157,4.157,0,0,0,.98,1.5,4.556,4.556,0,0,0,1.51.97,5.288,5.288,0,0,0,1.95.34h4.92a5.542,5.542,0,0,0,1.95-.34,4.175,4.175,0,0,0,1.51-.97,4.385,4.385,0,0,0,.98-1.5,5.342,5.342,0,0,0,.34-1.96v-3.85Z" fill="#fff"/>
      <path id="Path_21548" data-name="Path 21548" d="M624.33,184.18a1.936,1.936,0,0,1-.14.73,1.649,1.649,0,0,1-.39.58,2.162,2.162,0,0,1-.59.39,1.924,1.924,0,0,1-.72.14h-8.24a11.275,11.275,0,0,1-2.36-.25,10.479,10.479,0,0,1-2.31-.78,9.955,9.955,0,0,1-2.1-1.34,8.617,8.617,0,0,1-1.72-1.93,9.378,9.378,0,0,1-1.16-2.56,11.446,11.446,0,0,1-.42-3.21V165.87h3.65v10.08a6.922,6.922,0,0,0,.43,2.61,5.945,5.945,0,0,0,1.09,1.79,5.1,5.1,0,0,0,1.45,1.12,7.815,7.815,0,0,0,1.5.6,8.09,8.09,0,0,0,1.25.25c.36.03.6.05.71.05h6.42v-16.5h3.65v18.31Z" fill="#fff"/>
      <path id="Path_21549" data-name="Path 21549" d="M651.59,172.64a7.284,7.284,0,0,1-.31,2.23,6.536,6.536,0,0,1-.84,1.74,6,6,0,0,1-1.22,1.29,7.228,7.228,0,0,1-1.44.88,6.763,6.763,0,0,1-1.52.5,7.5,7.5,0,0,1-1.44.15l7.63,6.59H646.8l-7.62-6.59h-2.63v-3.65h8.26a4.153,4.153,0,0,0,1.26-.29,2.98,2.98,0,0,0,.98-.62,2.615,2.615,0,0,0,.64-.95,3.348,3.348,0,0,0,.22-1.27v-2.3a1.137,1.137,0,0,0-.08-.47.539.539,0,0,0-.2-.24.581.581,0,0,0-.25-.09,2.176,2.176,0,0,0-.25-.01H635.07v16.5h-3.66V167.73a1.963,1.963,0,0,1,.14-.72,1.785,1.785,0,0,1,.39-.59,1.649,1.649,0,0,1,.58-.39,1.937,1.937,0,0,1,.73-.14h13.87a4.492,4.492,0,0,1,2.07.44,4.107,4.107,0,0,1,1.37,1.11,4.545,4.545,0,0,1,.76,1.44,5.194,5.194,0,0,1,.23,1.45v2.31h.04Z" fill="#fff"/>
      <path id="Path_21550" data-name="Path 21550" d="M661.82,186.02h-3.66V165.86h3.66Z" fill="#fff"/>
      <path id="Path_21551" data-name="Path 21551" d="M689.12,184.46a1.765,1.765,0,0,1-.15.73,1.818,1.818,0,0,1-.97.97,1.714,1.714,0,0,1-.72.14,1.823,1.823,0,0,1-.68-.13,1.533,1.533,0,0,1-.61-.41l-13.35-13.94v14.2h-3.66v-18.6a1.786,1.786,0,0,1,.32-1.02,1.9,1.9,0,0,1,.81-.68,1.868,1.868,0,0,1,1.07-.11,1.713,1.713,0,0,1,.94.51l13.35,13.93v-14.2h3.65v18.61Z" fill="#fff"/>
      <path id="Path_21552" data-name="Path 21552" d="M716.13,184.18a1.936,1.936,0,0,1-.14.73,1.649,1.649,0,0,1-.39.58,2.111,2.111,0,0,1-.58.39,1.761,1.761,0,0,1-.73.14H701.11a5.418,5.418,0,0,1-1.09-.12,5.5,5.5,0,0,1-1.15-.37,5.812,5.812,0,0,1-1.09-.65,4.478,4.478,0,0,1-.92-.97,4.765,4.765,0,0,1-.64-1.32,5.565,5.565,0,0,1-.24-1.69V171a5.417,5.417,0,0,1,.12-1.09,5.5,5.5,0,0,1,.37-1.15,5.373,5.373,0,0,1,.66-1.09,4.531,4.531,0,0,1,.98-.92,4.841,4.841,0,0,1,1.31-.64,5.518,5.518,0,0,1,1.69-.24h14.86v3.65H701.11a1.514,1.514,0,0,0-1.1.38,1.492,1.492,0,0,0-.38,1.12v9.87a1.354,1.354,0,0,0,1.48,1.48h11.37v-4.58h-9.73v-3.68h11.54a1.766,1.766,0,0,1,.73.15,1.823,1.823,0,0,1,.58.4,2.112,2.112,0,0,1,.39.58,1.872,1.872,0,0,1,.14.71v8.23Z" fill="#fff"/>
      <path id="Path_21553" data-name="Path 21553" d="M753.11,186.02H739.93a5.418,5.418,0,0,1-1.09-.12,5.5,5.5,0,0,1-1.15-.37,5.812,5.812,0,0,1-1.09-.65,4.478,4.478,0,0,1-.92-.97,4.765,4.765,0,0,1-.64-1.32,5.565,5.565,0,0,1-.24-1.69V171a5.417,5.417,0,0,1,.12-1.09,5.5,5.5,0,0,1,.37-1.15,5.373,5.373,0,0,1,.66-1.09,4.531,4.531,0,0,1,.98-.92,4.841,4.841,0,0,1,1.31-.64,5.518,5.518,0,0,1,1.69-.24h13.18v3.65H739.93a1.514,1.514,0,0,0-1.1.38,1.492,1.492,0,0,0-.38,1.12v9.87a1.354,1.354,0,0,0,1.48,1.48h13.18v3.65Z" fill="#fff"/>
      <path id="Path_21554" data-name="Path 21554" d="M779.22,186.02h-3.65v-4.95H762.72v4.95h-3.65V175.94a10.557,10.557,0,0,1,.76-4.06,9.5,9.5,0,0,1,2.11-3.19,9.63,9.63,0,0,1,3.19-2.08,10.575,10.575,0,0,1,4.02-.75h8.24a1.963,1.963,0,0,1,.72.14,1.769,1.769,0,0,1,.98.98,1.923,1.923,0,0,1,.14.72v18.32h-.01Zm-16.5-8.6h12.85v-7.9h-6.42c-.11,0-.35.02-.71.05a7.056,7.056,0,0,0-1.25.25,8.08,8.08,0,0,0-1.5.6,5.436,5.436,0,0,0-1.45,1.12,5.947,5.947,0,0,0-1.09,1.79,6.956,6.956,0,0,0-.43,2.61v1.48Z" fill="#fff"/>
      <path id="Path_21555" data-name="Path 21555" d="M806.48,172.64a7.284,7.284,0,0,1-.31,2.23,6.536,6.536,0,0,1-.84,1.74,6,6,0,0,1-1.22,1.29,7.228,7.228,0,0,1-1.44.88,6.763,6.763,0,0,1-1.52.5,7.5,7.5,0,0,1-1.44.15l7.63,6.59h-5.65l-7.62-6.59h-2.63v-3.65h8.26a4.153,4.153,0,0,0,1.26-.29,2.98,2.98,0,0,0,.98-.62,2.615,2.615,0,0,0,.64-.95,3.348,3.348,0,0,0,.22-1.27v-2.3a1.137,1.137,0,0,0-.08-.47.539.539,0,0,0-.2-.24.581.581,0,0,0-.25-.09,2.176,2.176,0,0,0-.25-.01H789.96v16.5H786.3V167.73a1.963,1.963,0,0,1,.14-.72,1.785,1.785,0,0,1,.39-.59,1.649,1.649,0,0,1,.58-.39,1.937,1.937,0,0,1,.73-.14h13.87a4.492,4.492,0,0,1,2.07.44,4.107,4.107,0,0,1,1.37,1.11,4.545,4.545,0,0,1,.76,1.44,5.194,5.194,0,0,1,.23,1.45v2.31h.04Z" fill="#fff"/>
      <path id="Path_21556" data-name="Path 21556" d="M843.17,186.02H829.99a5.418,5.418,0,0,1-1.09-.12,5.5,5.5,0,0,1-1.15-.37,5.812,5.812,0,0,1-1.09-.65,4.478,4.478,0,0,1-.92-.97,4.765,4.765,0,0,1-.64-1.32,5.565,5.565,0,0,1-.24-1.69V171a5.417,5.417,0,0,1,.12-1.09,5.5,5.5,0,0,1,.37-1.15,5.373,5.373,0,0,1,.66-1.09,4.531,4.531,0,0,1,.98-.92,4.841,4.841,0,0,1,1.31-.64,5.518,5.518,0,0,1,1.69-.24h13.18v3.65H829.99a1.514,1.514,0,0,0-1.1.38,1.492,1.492,0,0,0-.38,1.12v9.87a1.354,1.354,0,0,0,1.48,1.48h13.18v3.65Z" fill="#fff"/>
      <path id="Path_21557" data-name="Path 21557" d="M853.19,174.1h12.83v-8.24h3.65v20.16h-3.65v-8.24H853.19v8.24h-3.66V165.86h3.66Z" fill="#fff"/>
      <path id="Path_21558" data-name="Path 21558" d="M896.6,186.02h-3.65v-4.95H880.1v4.95h-3.65V175.94a10.557,10.557,0,0,1,.76-4.06,9.5,9.5,0,0,1,2.11-3.19,9.63,9.63,0,0,1,3.19-2.08,10.575,10.575,0,0,1,4.02-.75h8.24a1.963,1.963,0,0,1,.72.14,1.769,1.769,0,0,1,.98.98,1.923,1.923,0,0,1,.14.72v18.32h-.01Zm-16.5-8.6h12.85v-7.9h-6.42c-.11,0-.35.02-.71.05a7.056,7.056,0,0,0-1.25.25,8.08,8.08,0,0,0-1.5.6,5.436,5.436,0,0,0-1.45,1.12,5.947,5.947,0,0,0-1.09,1.79,6.956,6.956,0,0,0-.43,2.61v1.48Z" fill="#fff"/>
      <path id="Path_21559" data-name="Path 21559" d="M927.18,186.02H923.5v-12l-6.48,11.4a1.58,1.58,0,0,1-.67.66,1.951,1.951,0,0,1-.92.22,1.922,1.922,0,0,1-.89-.22,1.591,1.591,0,0,1-.65-.66l-6.51-11.4v12h-3.66v-18.6a1.824,1.824,0,0,1,1.35-1.78,1.966,1.966,0,0,1,.59-.05,1.821,1.821,0,0,1,.57.13,1.922,1.922,0,0,1,.5.29,1.7,1.7,0,0,1,.38.46l8.32,14.46,8.32-14.46a1.781,1.781,0,0,1,.89-.76,1.932,1.932,0,0,1,1.19-.07,1.855,1.855,0,0,1,1.35,1.78v18.6Z" fill="#fff"/>
      <path id="Path_21560" data-name="Path 21560" d="M954.4,174.3a7.284,7.284,0,0,1-.31,2.23,6.39,6.39,0,0,1-.84,1.74,6,6,0,0,1-1.22,1.29,7.1,7.1,0,0,1-2.96,1.36,7.5,7.5,0,0,1-1.44.15h-8.26v-3.65h8.26a4.149,4.149,0,0,0,1.27-.29,3.152,3.152,0,0,0,.98-.62,2.723,2.723,0,0,0,.63-.95,3.33,3.33,0,0,0,.22-1.26v-1.66a4.846,4.846,0,0,0-.29-1.26,2.958,2.958,0,0,0-.61-.98,2.911,2.911,0,0,0-.93-.64,3.163,3.163,0,0,0-1.27-.23h-8.24a1.332,1.332,0,0,0-1.49,1.48v15.03h-3.65V171.01a5.146,5.146,0,0,1,.51-2.39,4.852,4.852,0,0,1,1.28-1.59,5.065,5.065,0,0,1,1.67-.88,5.792,5.792,0,0,1,1.66-.27h8.26a7.206,7.206,0,0,1,2.22.32,6.537,6.537,0,0,1,1.74.84,5.52,5.52,0,0,1,1.28,1.22,7.669,7.669,0,0,1,.87,1.44,6.763,6.763,0,0,1,.5,1.52,7.552,7.552,0,0,1,.16,1.44v1.64Z" fill="#fff"/>
      <path id="Path_21561" data-name="Path 21561" d="M964.08,186.02h-3.66V165.86h3.66Z" fill="#fff"/>
      <path id="Path_21562" data-name="Path 21562" d="M992.38,177.87a8.9,8.9,0,0,1-.63,3.39,7.912,7.912,0,0,1-4.42,4.42,8.763,8.763,0,0,1-3.35.63h-4.95a8.814,8.814,0,0,1-3.36-.63,7.889,7.889,0,0,1-4.43-4.42,8.712,8.712,0,0,1-.64-3.39v-3.85a8.733,8.733,0,0,1,.64-3.38,7.889,7.889,0,0,1,4.43-4.42,8.814,8.814,0,0,1,3.36-.63h4.95a8.726,8.726,0,0,1,3.35.63,7.912,7.912,0,0,1,4.42,4.42,8.917,8.917,0,0,1,.63,3.38Zm-3.65-3.85a5.3,5.3,0,0,0-.34-1.96,4.181,4.181,0,0,0-.97-1.5,4.361,4.361,0,0,0-1.5-.97,5.218,5.218,0,0,0-1.93-.34h-4.95a5.542,5.542,0,0,0-1.95.34,4.175,4.175,0,0,0-1.51.97,4.385,4.385,0,0,0-.98,1.5,5.342,5.342,0,0,0-.34,1.96v3.85a5.3,5.3,0,0,0,.34,1.96,4.157,4.157,0,0,0,.98,1.5,4.556,4.556,0,0,0,1.51.97,5.288,5.288,0,0,0,1.95.34h4.92a5.542,5.542,0,0,0,1.95-.34,4.175,4.175,0,0,0,1.51-.97,4.385,4.385,0,0,0,.98-1.5,5.342,5.342,0,0,0,.34-1.96v-3.85Z" fill="#fff"/>
      <path id="Path_21563" data-name="Path 21563" d="M1019.02,184.46a1.765,1.765,0,0,1-.15.73,1.818,1.818,0,0,1-.97.97,1.714,1.714,0,0,1-.72.14,1.823,1.823,0,0,1-.68-.13,1.533,1.533,0,0,1-.61-.41l-13.35-13.94v14.2h-3.66v-18.6a1.786,1.786,0,0,1,.32-1.02,1.9,1.9,0,0,1,.81-.68,1.868,1.868,0,0,1,1.07-.11,1.713,1.713,0,0,1,.94.51l13.35,13.93v-14.2h3.65v18.61Z" fill="#fff"/>
    </g>
    <path id="Path_21564" data-name="Path 21564" d="M301.62,105.24s3.9-22.97-16.73-35.1C262.66,57.06,174.1,56.36,106.87,138.2c-80.35,97.82-39.4,150.54,10.54,147.13,43.63-2.99,99.31-28.05,137.02-71.4,29.84-34.29,32.32-48.04,32.32-48.04h67.31S310.62,322.04,124.64,346.07C19.15,359.7-4.62,264.92.69,223.47S34.96,102.76,116.4,46.77C196.76-8.47,270.09-5.99,303.39,9.84c66.46,31.58,61.92,96.47,61.92,96.47Z" fill="#fff"/>
  </g>
</svg>
