<svg xmlns="http://www.w3.org/2000/svg" width="481.9" height="311.82" viewBox="0 0 481.9 311.82">
  <g id="colin-turkington-logo_stapline-rgb" transform="translate(-178.41 -138.9)">
    <g id="Group_28" data-name="Group 28">
      <path id="Path_170" data-name="Path 170" d="M231.99,151.6l.01-.02A.031.031,0,0,0,231.99,151.6Z" fill="#f399c0"/>
      <g id="Group_27" data-name="Group 27">
        <path id="Path_171" data-name="Path 171" d="M180.49,310.07l.24-.75C180.66,309.57,180.57,309.82,180.49,310.07Z" fill="#f399c0"/>
        <path id="Path_172" data-name="Path 172" d="M299.84,142.8a3.9,3.9,0,0,0-3.9-3.9h-46.7a18.08,18.08,0,0,0-17.25,12.69l-.01.02L180.73,309.33l-.24.75a47.385,47.385,0,0,0,45.29,61.27l73.88-227.38-.02-.02A3.7,3.7,0,0,0,299.84,142.8Z" fill="#001e62"/>
      </g>
      <path id="Path_173" data-name="Path 173" d="M377.79,142.8a3.905,3.905,0,0,0-3.9-3.9H327.16a18.065,18.065,0,0,0-16.97,11.91l-.41,1.26-27.67,85.17a3.805,3.805,0,0,0-.2,1.22,3.905,3.905,0,0,0,3.9,3.9h57a3.878,3.878,0,0,0,3.72-2.81h.02l31.06-95.6-.02-.02A3.276,3.276,0,0,0,377.79,142.8Z" fill="#f9423a"/>
      <path id="Path_174" data-name="Path 174" d="M307.89,358.53h0l29.69-91.36a89.764,89.764,0,0,0-84.95,60.79l-.77,2.37-11.64,35.82h.02a3.986,3.986,0,0,0-.24,1.29,3.9,3.9,0,0,0,3.9,3.9h46.7A18.069,18.069,0,0,0,307.89,358.53Z" fill="#005eb8"/>
    </g>
    <g id="Group_29" data-name="Group 29">
      <path id="Path_175" data-name="Path 175" d="M381.46,277.23a2.371,2.371,0,0,0-2.29-1.5,2.638,2.638,0,0,0-1.97.75,5.353,5.353,0,0,0-1.12,2.65,33,33,0,0,0-.5,5.13q-.12,3.225-.12,8.13t.12,8.13a32.873,32.873,0,0,0,.5,5.13,5.264,5.264,0,0,0,1.12,2.65,2.638,2.638,0,0,0,1.97.75,2.376,2.376,0,0,0,1.65-.58,3.869,3.869,0,0,0,1-1.94,20.051,20.051,0,0,0,.5-3.64c.1-1.52.15-3.43.15-5.75h10.58v3.6a24.844,24.844,0,0,1-1.18,8.36,13.107,13.107,0,0,1-3.11,5.13,9.813,9.813,0,0,1-4.44,2.52,20.515,20.515,0,0,1-5.14.65,18.811,18.811,0,0,1-7.52-1.29,9.437,9.437,0,0,1-4.58-4.32,22.319,22.319,0,0,1-2.26-7.82,92.886,92.886,0,0,1-.62-11.59,79.868,79.868,0,0,1,.73-11.76,21.871,21.871,0,0,1,2.5-7.82,10.472,10.472,0,0,1,4.64-4.32,17.025,17.025,0,0,1,7.11-1.33,16.143,16.143,0,0,1,6.29,1.09,10.663,10.663,0,0,1,4.2,3.09,12.674,12.674,0,0,1,2.35,4.83,25.267,25.267,0,0,1,.73,6.36v3.06H382.17v-2.72A15.035,15.035,0,0,0,381.46,277.23Z" fill="#001e62"/>
      <path id="Path_176" data-name="Path 176" d="M396.51,280.8a22.535,22.535,0,0,1,2.53-7.82,10.77,10.77,0,0,1,4.64-4.42,18.573,18.573,0,0,1,14.1,0,10.716,10.716,0,0,1,4.64,4.42,22.535,22.535,0,0,1,2.53,7.82,88.753,88.753,0,0,1,0,23.18,22.535,22.535,0,0,1-2.53,7.82,10.146,10.146,0,0,1-4.64,4.32,19.909,19.909,0,0,1-14.1,0,10.1,10.1,0,0,1-4.64-4.32,22.535,22.535,0,0,1-2.53-7.82,75.044,75.044,0,0,1-.76-11.59A73.812,73.812,0,0,1,396.51,280.8Zm10.63,19.72a32.873,32.873,0,0,0,.5,5.13,5.264,5.264,0,0,0,1.12,2.65,2.962,2.962,0,0,0,3.94,0,5.353,5.353,0,0,0,1.12-2.65,34.291,34.291,0,0,0,.5-5.13q.12-3.225.12-8.13t-.12-8.13a34.291,34.291,0,0,0-.5-5.13,5.353,5.353,0,0,0-1.12-2.65,2.962,2.962,0,0,0-3.94,0,5.353,5.353,0,0,0-1.12,2.65,33,33,0,0,0-.5,5.13q-.12,3.225-.12,8.13C407.03,295.66,407.06,298.37,407.14,300.52Z" fill="#001e62"/>
      <path id="Path_177" data-name="Path 177" d="M439.41,268.12v38.22h13.46v10.34H428.48V268.13h10.93Z" fill="#001e62"/>
      <path id="Path_178" data-name="Path 178" d="M466.2,268.12v48.55H455.27V268.12Z" fill="#001e62"/>
      <path id="Path_179" data-name="Path 179" d="M482.31,268.12l7.05,29.92h.12V268.12h10.23v48.55H487.72l-7.29-29.99h-.12v29.99H470.08V268.12Z" fill="#001e62"/>
      <path id="Path_180" data-name="Path 180" d="M362.83,333.53V322.79H390.1v10.74h-8.23v37.81H370.94V333.53Z" fill="#001e62"/>
      <path id="Path_181" data-name="Path 181" d="M403.03,357.8c0,2.36.29,3.93.88,4.73a3.035,3.035,0,0,0,4.82,0c.59-.79.88-2.37.88-4.73V322.78h10.93V354.6a32.352,32.352,0,0,1-.94,8.5,13.7,13.7,0,0,1-2.73,5.44,9.08,9.08,0,0,1-4.44,2.79,25.141,25.141,0,0,1-12.19,0,9.122,9.122,0,0,1-4.47-2.79,13.441,13.441,0,0,1-2.73-5.44,32.352,32.352,0,0,1-.94-8.5V322.78h10.93Z" fill="#001e62"/>
      <path id="Path_182" data-name="Path 182" d="M441.17,322.78a13.459,13.459,0,0,1,5.32.95,9,9,0,0,1,3.58,2.69,10.955,10.955,0,0,1,2,4.11,20.581,20.581,0,0,1,.62,5.17,15.975,15.975,0,0,1-1.7,7.89,7.432,7.432,0,0,1-5.47,3.67v.14c2.62.27,4.43,1.34,5.41,3.2a16.647,16.647,0,0,1,1.47,7.68v6.12c0,.68.02,1.33.06,1.94s.1,1.17.18,1.67a5.7,5.7,0,0,0,.29,1.16c.16.27.31.53.47.78a2.39,2.39,0,0,0,.76.71v.68H442.52a9.648,9.648,0,0,1-.62-2.24c-.14-.86-.23-1.72-.29-2.58s-.1-1.69-.12-2.48-.03-1.44-.03-1.94v-3.26a26.677,26.677,0,0,0-.18-3.4,5.864,5.864,0,0,0-.62-2.14,2.5,2.5,0,0,0-1.12-1.09,4.114,4.114,0,0,0-1.67-.31H435v19.45H424.07V322.8h17.1Zm-4,20.54a3.937,3.937,0,0,0,3.47-1.6,7.175,7.175,0,0,0,1.12-4.18c0-2.04-.36-3.49-1.09-4.35a4.421,4.421,0,0,0-3.56-1.29H435v11.42Z" fill="#001e62"/>
      <path id="Path_183" data-name="Path 183" d="M467.73,322.78v18.63h.12l8.11-18.63H487.6L477.02,344l11.87,27.34H476.43l-6.41-16.93-2.29,4.08v12.85H456.8V322.79h10.93Z" fill="#001e62"/>
      <path id="Path_184" data-name="Path 184" d="M501.87,322.78v48.55H490.94V322.78Z" fill="#001e62"/>
      <path id="Path_185" data-name="Path 185" d="M517.98,322.78l7.05,29.92h.12V322.78h10.23v48.55H523.39l-7.29-29.99h-.12v29.99H505.75V322.78Z" fill="#001e62"/>
      <path id="Path_186" data-name="Path 186" d="M567.58,344.95v26.38h-7.41l-.23-4.28h-.12a6.814,6.814,0,0,1-1.5,2.58,6.516,6.516,0,0,1-2.17,1.53,10.3,10.3,0,0,1-2.59.71,19.918,19.918,0,0,1-2.79.2,11.731,11.731,0,0,1-6.58-1.6,9.717,9.717,0,0,1-3.64-4.79,27.521,27.521,0,0,1-1.56-7.89c-.22-3.13-.32-6.71-.32-10.74a84.021,84.021,0,0,1,.62-10.81,22.583,22.583,0,0,1,2.35-7.89,11.75,11.75,0,0,1,4.79-4.86,16.388,16.388,0,0,1,7.88-1.67,15.506,15.506,0,0,1,5.32.88,10.207,10.207,0,0,1,4.2,2.86,13.739,13.739,0,0,1,2.76,5.07,24.522,24.522,0,0,1,1,7.51H557a19.555,19.555,0,0,0-.59-5.64,2.489,2.489,0,0,0-2.53-2.11,2.97,2.97,0,0,0-2.14.75,5,5,0,0,0-1.18,2.65,34.3,34.3,0,0,0-.5,5.13q-.12,3.225-.12,8.13t.12,8.13a32.876,32.876,0,0,0,.5,5.13,5.264,5.264,0,0,0,1.12,2.65,2.638,2.638,0,0,0,1.97.75,2.976,2.976,0,0,0,1.56-.41,3.144,3.144,0,0,0,1.15-1.53,12.584,12.584,0,0,0,.73-3.13,40.07,40.07,0,0,0,.26-5.13h-3.88v-8.57h14.11Z" fill="#001e62"/>
      <path id="Path_187" data-name="Path 187" d="M569.46,333.53V322.79h27.27v10.74H588.5v37.81H577.57V333.53Z" fill="#001e62"/>
      <path id="Path_188" data-name="Path 188" d="M598.72,335.46a22.534,22.534,0,0,1,2.53-7.82,10.716,10.716,0,0,1,4.64-4.42,18.573,18.573,0,0,1,14.1,0,10.716,10.716,0,0,1,4.64,4.42,22.535,22.535,0,0,1,2.53,7.82,88.753,88.753,0,0,1,0,23.18,22.534,22.534,0,0,1-2.53,7.82,10.1,10.1,0,0,1-4.64,4.32,19.909,19.909,0,0,1-14.1,0,10.1,10.1,0,0,1-4.64-4.32,22.535,22.535,0,0,1-2.53-7.82,88.753,88.753,0,0,1,0-23.18Zm10.64,19.72a32.876,32.876,0,0,0,.5,5.13,5.264,5.264,0,0,0,1.12,2.65,2.962,2.962,0,0,0,3.94,0,5.353,5.353,0,0,0,1.12-2.65,34.3,34.3,0,0,0,.5-5.13q.12-3.225.12-8.13t-.12-8.13a34.3,34.3,0,0,0-.5-5.13,5.264,5.264,0,0,0-1.12-2.65,2.962,2.962,0,0,0-3.94,0,5.353,5.353,0,0,0-1.12,2.65,33.008,33.008,0,0,0-.5,5.13q-.12,3.225-.12,8.13T609.36,355.18Z" fill="#001e62"/>
      <path id="Path_189" data-name="Path 189" d="M642.91,322.78l7.05,29.92h.12V322.78h10.23v48.55H648.32l-7.29-29.99h-.12v29.99H630.68V322.78Z" fill="#001e62"/>
      <path id="Path_190" data-name="Path 190" d="M375.54,412.52v13.46h-9.87V412.52Z" fill="#001e62"/>
      <path id="Path_191" data-name="Path 191" d="M395.7,386.55a2.371,2.371,0,0,0-2.29-1.5,2.638,2.638,0,0,0-1.97.75,5.353,5.353,0,0,0-1.12,2.65,33,33,0,0,0-.5,5.13q-.12,3.225-.12,8.13t.12,8.13a32.873,32.873,0,0,0,.5,5.13,5.264,5.264,0,0,0,1.12,2.65,2.638,2.638,0,0,0,1.97.75,2.376,2.376,0,0,0,1.65-.58,3.869,3.869,0,0,0,1-1.94,20.051,20.051,0,0,0,.5-3.64c.1-1.52.15-3.43.15-5.75h10.58v3.6a24.844,24.844,0,0,1-1.18,8.36,13.107,13.107,0,0,1-3.11,5.13,9.813,9.813,0,0,1-4.44,2.52,20.515,20.515,0,0,1-5.14.65,18.811,18.811,0,0,1-7.52-1.29,9.437,9.437,0,0,1-4.58-4.32,22.319,22.319,0,0,1-2.26-7.82,92.886,92.886,0,0,1-.62-11.59,79.868,79.868,0,0,1,.73-11.76,21.871,21.871,0,0,1,2.5-7.82,10.472,10.472,0,0,1,4.64-4.32,17.025,17.025,0,0,1,7.11-1.33,16.143,16.143,0,0,1,6.29,1.09,10.663,10.663,0,0,1,4.2,3.09,12.674,12.674,0,0,1,2.35,4.83,25.267,25.267,0,0,1,.73,6.36v3.06H396.4v-2.72C396.4,389.43,396.17,387.54,395.7,386.55Z" fill="#001e62"/>
      <path id="Path_192" data-name="Path 192" d="M410.74,390.12a22.535,22.535,0,0,1,2.53-7.82,10.77,10.77,0,0,1,4.64-4.42,18.573,18.573,0,0,1,14.1,0,10.716,10.716,0,0,1,4.64,4.42,22.535,22.535,0,0,1,2.53,7.82,75.044,75.044,0,0,1,.76,11.59,76.226,76.226,0,0,1-.76,11.59,22.535,22.535,0,0,1-2.53,7.82,10.146,10.146,0,0,1-4.64,4.32,19.909,19.909,0,0,1-14.1,0,10.1,10.1,0,0,1-4.64-4.32,22.535,22.535,0,0,1-2.53-7.82,88.753,88.753,0,0,1,0-23.18Zm10.64,19.72a32.873,32.873,0,0,0,.5,5.13,5.264,5.264,0,0,0,1.12,2.65,2.962,2.962,0,0,0,3.94,0,5.353,5.353,0,0,0,1.12-2.65,34.291,34.291,0,0,0,.5-5.13q.12-3.225.12-8.13t-.12-8.13a34.291,34.291,0,0,0-.5-5.13,5.264,5.264,0,0,0-1.12-2.65,2.962,2.962,0,0,0-3.94,0,5.353,5.353,0,0,0-1.12,2.65,33,33,0,0,0-.5,5.13q-.12,3.225-.12,8.13C421.26,404.98,421.3,407.68,421.38,409.84Z" fill="#001e62"/>
      <path id="Path_193" data-name="Path 193" d="M459.11,377.44l4.41,28.76h.12l4.41-28.76h15.63v48.55H473.46V389.81h-.12l-5.82,36.18h-7.88l-5.82-36.18h-.12v36.18H443.48V377.44Z" fill="#001e62"/>
    </g>
    <g id="Group_30" data-name="Group 30">
      <path id="Path_194" data-name="Path 194" d="M370.05,437.63a2.823,2.823,0,0,1,2.3.88,3.51,3.51,0,0,1,.74,2.34,4.462,4.462,0,0,1-.1.98,3.318,3.318,0,0,1-.31.87,2.174,2.174,0,0,1-.54.66,1.862,1.862,0,0,1-.8.38v.04a2.031,2.031,0,0,1,.94.33,2.475,2.475,0,0,1,.64.69,3.165,3.165,0,0,1,.37.91,4.21,4.21,0,0,1,.12,1,5.726,5.726,0,0,1-.19,1.53,3.321,3.321,0,0,1-.58,1.21,2.556,2.556,0,0,1-1.04.78,3.783,3.783,0,0,1-1.54.28h-4.38V437.63Zm-.78,5.05a.765.765,0,0,0,.69-.39,1.688,1.688,0,0,0,.23-.91,1.9,1.9,0,0,0-.23-.94.763.763,0,0,0-.69-.4h-.7v2.63h.7Zm.11,5.41a.914.914,0,0,0,.72-.39,1.893,1.893,0,0,0,.31-1.2,1.793,1.793,0,0,0-.31-1.15.926.926,0,0,0-.72-.4h-.81v3.14Z" fill="#005eb8"/>
      <path id="Path_195" data-name="Path 195" d="M379.53,437.63a3.521,3.521,0,0,1,1.41.25,2.453,2.453,0,0,1,.95.71,3,3,0,0,1,.53,1.09,5.42,5.42,0,0,1,.16,1.37,4.208,4.208,0,0,1-.45,2.09,1.957,1.957,0,0,1-1.45.97v.04a1.677,1.677,0,0,1,1.43.85,4.4,4.4,0,0,1,.39,2.04v1.62c0,.18.01.35.02.51s.03.31.05.44a1.526,1.526,0,0,0,.08.31l.12.21a.612.612,0,0,0,.2.19v.18h-3.09a2.377,2.377,0,0,1-.16-.6c-.04-.23-.06-.46-.08-.69s-.03-.45-.03-.66-.01-.38-.01-.51v-.87a7.334,7.334,0,0,0-.05-.9,1.774,1.774,0,0,0-.16-.57.7.7,0,0,0-.3-.29,1.153,1.153,0,0,0-.44-.08h-.76v5.16h-2.9V437.61h4.54Zm-1.06,5.45a1.047,1.047,0,0,0,.92-.42,1.87,1.87,0,0,0,.3-1.11,1.788,1.788,0,0,0-.29-1.15,1.161,1.161,0,0,0-.94-.34h-.56v3.03h.57Z" fill="#005eb8"/>
      <path id="Path_196" data-name="Path 196" d="M387.2,437.63v12.88h-2.9V437.63Z" fill="#005eb8"/>
      <path id="Path_197" data-name="Path 197" d="M388.24,440.48v-2.85h7.23v2.85h-2.18v10.03h-2.9V440.48Z" fill="#005eb8"/>
      <path id="Path_198" data-name="Path 198" d="M399.39,437.63v12.88h-2.9V437.63Z" fill="#005eb8"/>
      <path id="Path_199" data-name="Path 199" d="M405.46,441.04a2.252,2.252,0,0,0-.2-.98.665.665,0,0,0-.62-.41.77.77,0,0,0-.69.35,1.554,1.554,0,0,0,.13,1.78,3.123,3.123,0,0,0,.88.64c.35.18.73.36,1.14.55a5.129,5.129,0,0,1,1.14.73,3.353,3.353,0,0,1,.88,1.18,4.477,4.477,0,0,1,.35,1.9,3.911,3.911,0,0,1-1.01,2.99,4.189,4.189,0,0,1-2.93.93,6.947,6.947,0,0,1-1.6-.17,2.613,2.613,0,0,1-1.17-.6,2.553,2.553,0,0,1-.72-1.11,4.919,4.919,0,0,1-.25-1.7v-.45h2.81v.31a1.881,1.881,0,0,0,.27,1.16.852.852,0,0,0,.69.33.779.779,0,0,0,.69-.36,1.566,1.566,0,0,0,.24-.88,1.411,1.411,0,0,0-.34-1,2.725,2.725,0,0,0-.84-.63c-.34-.17-.7-.35-1.1-.53a4.757,4.757,0,0,1-1.1-.7,3.32,3.32,0,0,1-.84-1.14,4.347,4.347,0,0,1-.34-1.84,4.4,4.4,0,0,1,.9-2.99,3.445,3.445,0,0,1,2.74-1.03,3.521,3.521,0,0,1,2.75.95,4.429,4.429,0,0,1,.85,3.02h-2.71Z" fill="#005eb8"/>
      <path id="Path_200" data-name="Path 200" d="M412.86,437.63v4.73h1.78v-4.73h2.9v12.88h-2.9v-5.3h-1.78v5.3h-2.9V437.63Z" fill="#005eb8"/>
      <path id="Path_201" data-name="Path 201" d="M422.64,440.48v-2.85h7.23v2.85h-2.18v10.03h-2.9V440.48Z" fill="#005eb8"/>
      <path id="Path_202" data-name="Path 202" d="M430.87,440.99a6.066,6.066,0,0,1,.67-2.07,2.824,2.824,0,0,1,1.23-1.17,4.911,4.911,0,0,1,3.74,0,2.882,2.882,0,0,1,1.23,1.17,6,6,0,0,1,.67,2.07,19.365,19.365,0,0,1,.2,3.08,20.624,20.624,0,0,1-.2,3.08,6.066,6.066,0,0,1-.67,2.07,2.669,2.669,0,0,1-1.23,1.15,5.313,5.313,0,0,1-3.74,0,2.669,2.669,0,0,1-1.23-1.15,6,6,0,0,1-.67-2.07,23.814,23.814,0,0,1,0-6.16Zm2.82,5.24a8.438,8.438,0,0,0,.13,1.36,1.391,1.391,0,0,0,.3.7.776.776,0,0,0,1.04,0,1.434,1.434,0,0,0,.3-.7,8.566,8.566,0,0,0,.13-1.36q.03-.855.03-2.16c0-.87-.01-1.58-.03-2.16a8.562,8.562,0,0,0-.13-1.36,1.391,1.391,0,0,0-.3-.7.776.776,0,0,0-1.04,0,1.434,1.434,0,0,0-.3.7,8.566,8.566,0,0,0-.13,1.36q-.03.855-.03,2.16C433.66,444.94,433.67,445.65,433.69,446.23Z" fill="#005eb8"/>
      <path id="Path_203" data-name="Path 203" d="M442.9,446.92a2.33,2.33,0,0,0,.23,1.25.8.8,0,0,0,1.28,0,2.26,2.26,0,0,0,.23-1.25v-9.29h2.9v8.44a8.55,8.55,0,0,1-.25,2.26,3.741,3.741,0,0,1-.72,1.44,2.407,2.407,0,0,1-1.18.74,6.62,6.62,0,0,1-3.23,0,2.436,2.436,0,0,1-1.19-.74,3.615,3.615,0,0,1-.73-1.44,8.448,8.448,0,0,1-.25-2.26v-8.44h2.9v9.29Z" fill="#005eb8"/>
      <path id="Path_204" data-name="Path 204" d="M453.8,437.63a3.521,3.521,0,0,1,1.41.25,2.453,2.453,0,0,1,.95.71,3,3,0,0,1,.53,1.09,5.42,5.42,0,0,1,.16,1.37,4.208,4.208,0,0,1-.45,2.09,1.957,1.957,0,0,1-1.45.97v.04a1.677,1.677,0,0,1,1.43.85,4.4,4.4,0,0,1,.39,2.04v1.62a4.184,4.184,0,0,0,.02.51c.01.16.03.31.05.44a1.526,1.526,0,0,0,.08.31,2.386,2.386,0,0,0,.13.21.612.612,0,0,0,.2.19v.18h-3.09a2.377,2.377,0,0,1-.16-.6c-.04-.23-.06-.46-.08-.69s-.03-.45-.03-.66-.01-.38-.01-.51v-.87a7.334,7.334,0,0,0-.05-.9,1.774,1.774,0,0,0-.16-.57.7.7,0,0,0-.3-.29,1.153,1.153,0,0,0-.44-.08h-.76v5.16h-2.9V437.61h4.53Zm-1.06,5.45a1.047,1.047,0,0,0,.92-.42,1.87,1.87,0,0,0,.3-1.11,1.788,1.788,0,0,0-.29-1.15,1.161,1.161,0,0,0-.94-.34h-.56v3.03h.57Z" fill="#005eb8"/>
      <path id="Path_205" data-name="Path 205" d="M461.47,437.63v12.88h-2.9V437.63Z" fill="#005eb8"/>
      <path id="Path_206" data-name="Path 206" d="M466.44,437.63l1.87,7.94h.03v-7.94h2.71v12.88h-3.18l-1.93-7.96h-.03v7.96H463.2V437.63Z" fill="#005eb8"/>
      <path id="Path_207" data-name="Path 207" d="M480.38,443.51v7h-1.96l-.06-1.14h-.03a1.8,1.8,0,0,1-.4.69,1.662,1.662,0,0,1-.58.41,2.912,2.912,0,0,1-.69.19,4.525,4.525,0,0,1-.74.05,3.168,3.168,0,0,1-1.75-.42,2.586,2.586,0,0,1-.97-1.27,6.907,6.907,0,0,1-.41-2.09q-.09-1.245-.09-2.85a22.187,22.187,0,0,1,.16-2.87,6.136,6.136,0,0,1,.62-2.09,3.158,3.158,0,0,1,1.27-1.29,4.408,4.408,0,0,1,2.09-.44,4.254,4.254,0,0,1,1.41.23,2.728,2.728,0,0,1,1.11.76,3.661,3.661,0,0,1,.73,1.34,6.426,6.426,0,0,1,.27,1.99h-2.81a4.973,4.973,0,0,0-.16-1.5.662.662,0,0,0-.67-.56.807.807,0,0,0-.57.2,1.345,1.345,0,0,0-.31.7,8.566,8.566,0,0,0-.13,1.36q-.03.855-.03,2.16c0,.87.01,1.58.03,2.16a8.438,8.438,0,0,0,.13,1.36,1.391,1.391,0,0,0,.3.7.7.7,0,0,0,.52.2.784.784,0,0,0,.41-.11.8.8,0,0,0,.3-.41,3.6,3.6,0,0,0,.2-.83,10.158,10.158,0,0,0,.07-1.36h-1.03v-2.27h3.77Z" fill="#005eb8"/>
      <path id="Path_208" data-name="Path 208" d="M490.81,440.05a.648.648,0,0,0-.61-.4.7.7,0,0,0-.52.2,1.434,1.434,0,0,0-.3.7,8.566,8.566,0,0,0-.13,1.36q-.03.855-.03,2.16c0,.87.01,1.58.03,2.16a8.438,8.438,0,0,0,.13,1.36,1.391,1.391,0,0,0,.3.7.7.7,0,0,0,.52.2.652.652,0,0,0,.44-.15,1.1,1.1,0,0,0,.27-.51,5.064,5.064,0,0,0,.13-.97c.03-.4.04-.91.04-1.52h2.81v.96a6.627,6.627,0,0,1-.31,2.22,3.421,3.421,0,0,1-.83,1.36,2.689,2.689,0,0,1-1.18.67,5.631,5.631,0,0,1-1.36.17,4.993,4.993,0,0,1-2-.34,2.558,2.558,0,0,1-1.22-1.15,6.046,6.046,0,0,1-.6-2.07,24.514,24.514,0,0,1-.16-3.08,22.641,22.641,0,0,1,.19-3.12,5.8,5.8,0,0,1,.66-2.07,2.776,2.776,0,0,1,1.23-1.15,4.589,4.589,0,0,1,1.89-.35,4.38,4.38,0,0,1,1.67.29,2.736,2.736,0,0,1,1.11.82,3.324,3.324,0,0,1,.62,1.28,6.718,6.718,0,0,1,.19,1.69v.81H491v-.72A3.882,3.882,0,0,0,490.81,440.05Z" fill="#005eb8"/>
      <path id="Path_209" data-name="Path 209" d="M500.87,437.63l2.71,12.88h-3.09l-.3-2.26h-2.31l-.3,2.26h-3.04l2.67-12.88Zm-1.84,2.63-.79,5.47h1.62l-.8-5.47Z" fill="#005eb8"/>
      <path id="Path_210" data-name="Path 210" d="M509.07,437.63a3.521,3.521,0,0,1,1.41.25,2.453,2.453,0,0,1,.95.71,3,3,0,0,1,.53,1.09,5.42,5.42,0,0,1,.16,1.37,4.208,4.208,0,0,1-.45,2.09,1.957,1.957,0,0,1-1.45.97v.04a1.677,1.677,0,0,1,1.43.85,4.4,4.4,0,0,1,.39,2.04v1.62a4.178,4.178,0,0,0,.02.51c.01.16.03.31.05.44a1.526,1.526,0,0,0,.08.31,2.386,2.386,0,0,0,.13.21.612.612,0,0,0,.2.19v.18h-3.09a2.377,2.377,0,0,1-.16-.6c-.04-.23-.06-.46-.08-.69s-.03-.45-.03-.66-.01-.38-.01-.51v-.87a7.334,7.334,0,0,0-.05-.9,1.774,1.774,0,0,0-.16-.57.7.7,0,0,0-.3-.29,1.153,1.153,0,0,0-.44-.08h-.76v5.16h-2.9V437.61h4.53Zm-1.06,5.45a1.047,1.047,0,0,0,.92-.42,1.87,1.87,0,0,0,.3-1.11,1.788,1.788,0,0,0-.29-1.15,1.161,1.161,0,0,0-.94-.34h-.56v3.03h.57Z" fill="#005eb8"/>
      <path id="Path_211" data-name="Path 211" d="M522.73,440.05a.648.648,0,0,0-.61-.4.7.7,0,0,0-.52.2,1.434,1.434,0,0,0-.3.7,8.566,8.566,0,0,0-.13,1.36q-.03.855-.03,2.16c0,.87.01,1.58.03,2.16a8.442,8.442,0,0,0,.13,1.36,1.391,1.391,0,0,0,.3.7.7.7,0,0,0,.52.2.652.652,0,0,0,.44-.15,1.1,1.1,0,0,0,.27-.51,5.064,5.064,0,0,0,.13-.97c.03-.4.04-.91.04-1.52h2.81v.96a6.626,6.626,0,0,1-.31,2.22,3.42,3.42,0,0,1-.83,1.36,2.689,2.689,0,0,1-1.18.67,5.631,5.631,0,0,1-1.36.17,4.993,4.993,0,0,1-2-.34,2.558,2.558,0,0,1-1.22-1.15,6.046,6.046,0,0,1-.6-2.07,24.514,24.514,0,0,1-.16-3.08,22.641,22.641,0,0,1,.19-3.12,5.8,5.8,0,0,1,.66-2.07,2.776,2.776,0,0,1,1.23-1.15,4.589,4.589,0,0,1,1.89-.35,4.38,4.38,0,0,1,1.67.29,2.736,2.736,0,0,1,1.11.82,3.325,3.325,0,0,1,.62,1.28,6.718,6.718,0,0,1,.19,1.69v.81H522.9v-.72A4,4,0,0,0,522.73,440.05Z" fill="#005eb8"/>
      <path id="Path_212" data-name="Path 212" d="M530.21,437.63v4.73h1.78v-4.73h2.9v12.88h-2.9v-5.3h-1.78v5.3h-2.9V437.63Z" fill="#005eb8"/>
      <path id="Path_213" data-name="Path 213" d="M542.2,437.63l2.71,12.88h-3.09l-.3-2.26h-2.31l-.3,2.26h-3.04l2.67-12.88Zm-1.84,2.63-.79,5.47h1.62l-.8-5.47Z" fill="#005eb8"/>
      <path id="Path_214" data-name="Path 214" d="M549.9,437.63l1.17,7.63h.03l1.17-7.63h4.15v12.88h-2.71v-9.6h-.03l-1.54,9.6h-2.09l-1.54-9.6h-.03v9.6h-2.71V437.63Z" fill="#005eb8"/>
      <path id="Path_215" data-name="Path 215" d="M562.39,437.63a3.048,3.048,0,0,1,1.43.31,2.936,2.936,0,0,1,1.01.84,3.6,3.6,0,0,1,.58,1.25,6.432,6.432,0,0,1,.19,1.57,4.262,4.262,0,0,1-.93,3,3.512,3.512,0,0,1-2.72,1h-1.01v4.91h-2.9V437.63Zm-.91,5.56a.986.986,0,0,0,.83-.38,1.982,1.982,0,0,0,.29-1.19c0-1.05-.37-1.57-1.12-1.57h-.55v3.14Z" fill="#005eb8"/>
      <path id="Path_216" data-name="Path 216" d="M569.78,437.63v12.88h-2.9V437.63Z" fill="#005eb8"/>
      <path id="Path_217" data-name="Path 217" d="M571.38,440.99a6.067,6.067,0,0,1,.67-2.07,2.824,2.824,0,0,1,1.23-1.17,4.911,4.911,0,0,1,3.74,0,2.882,2.882,0,0,1,1.23,1.17,6,6,0,0,1,.67,2.07,23.814,23.814,0,0,1,0,6.16,6.067,6.067,0,0,1-.67,2.07,2.669,2.669,0,0,1-1.23,1.15,5.313,5.313,0,0,1-3.74,0,2.669,2.669,0,0,1-1.23-1.15,6,6,0,0,1-.67-2.07,19.365,19.365,0,0,1-.2-3.08A20.625,20.625,0,0,1,571.38,440.99Zm2.83,5.24a8.442,8.442,0,0,0,.13,1.36,1.391,1.391,0,0,0,.3.7.776.776,0,0,0,1.04,0,1.434,1.434,0,0,0,.3-.7,8.566,8.566,0,0,0,.13-1.36q.03-.855.03-2.16c0-.87-.01-1.58-.03-2.16a8.566,8.566,0,0,0-.13-1.36,1.391,1.391,0,0,0-.3-.7.776.776,0,0,0-1.04,0,1.434,1.434,0,0,0-.3.7,8.566,8.566,0,0,0-.13,1.36q-.03.855-.03,2.16C574.18,444.94,574.18,445.65,574.21,446.23Z" fill="#005eb8"/>
      <path id="Path_218" data-name="Path 218" d="M583.89,437.63l1.87,7.94h.03v-7.94h2.71v12.88h-3.18l-1.93-7.96h-.03v7.96h-2.71V437.63Z" fill="#005eb8"/>
    </g>
  </g>
</svg>
