<svg xmlns="http://www.w3.org/2000/svg" width="211.308" height="126.211" viewBox="0 0 211.308 126.211">
  <g id="Colin_Turkington_Logo_Stapline-rgb_rev" data-name="Colin Turkington Logo_Stapline-rgb_rev" transform="translate(-178.41 -138.9)">
    <g id="Group_2" data-name="Group 2" transform="translate(178.41 138.9)">
      <path id="Path_1" data-name="Path 1" d="M231.99,151.589l0-.009A.014.014,0,0,0,231.99,151.589Z" transform="translate(-208.496 -146.02)" fill="#f399c0"/>
      <g id="Group_1" data-name="Group 1" transform="translate(0 0)">
        <path id="Path_2" data-name="Path 2" d="M180.49,309.649l.105-.329C180.565,309.43,180.525,309.539,180.49,309.649Z" transform="translate(-179.578 -234.593)" fill="#f399c0"/>
        <path id="Path_3" data-name="Path 3" d="M231.656,140.61a1.709,1.709,0,0,0-1.71-1.71H209.468a7.928,7.928,0,0,0-7.564,5.564l0,.009-22.473,69.159-.105.329a20.778,20.778,0,0,0,19.859,26.866l32.4-99.7-.009-.009A1.625,1.625,0,0,0,231.656,140.61Z" transform="translate(-178.41 -138.9)" fill="#fff"/>
      </g>
      <path id="Path_4" data-name="Path 4" d="M323.952,140.61a1.712,1.712,0,0,0-1.71-1.71H301.752a7.921,7.921,0,0,0-7.441,5.222l-.18.552L282,182.021a1.669,1.669,0,0,0-.088.535,1.712,1.712,0,0,0,1.71,1.71h24.994a1.7,1.7,0,0,0,1.631-1.232h.009l13.62-41.92-.009-.009A1.436,1.436,0,0,0,323.952,140.61Z" transform="translate(-236.526 -138.9)" fill="#f9423a"/>
      <path id="Path_5" data-name="Path 5" d="M269.769,307.23h0l13.019-40.06a39.361,39.361,0,0,0-37.25,26.656l-.338,1.039-5.1,15.707h.009a1.748,1.748,0,0,0-.105.566,1.71,1.71,0,0,0,1.71,1.71h20.477A7.923,7.923,0,0,0,269.769,307.23Z" transform="translate(-212.993 -210.925)" fill="#005eb8"/>
    </g>
    <g id="Group_3" data-name="Group 3" transform="translate(259.276 195.136)">
      <path id="Path_6" data-name="Path 6" d="M371.768,271.57a1.04,1.04,0,0,0-1-.658,1.157,1.157,0,0,0-.864.329,2.347,2.347,0,0,0-.491,1.162,14.474,14.474,0,0,0-.219,2.249q-.053,1.414-.053,3.565t.053,3.565a14.417,14.417,0,0,0,.219,2.249,2.308,2.308,0,0,0,.491,1.162,1.157,1.157,0,0,0,.864.329,1.042,1.042,0,0,0,.724-.254,1.7,1.7,0,0,0,.438-.851,8.792,8.792,0,0,0,.219-1.6c.044-.666.066-1.5.066-2.521h4.639v1.579a10.894,10.894,0,0,1-.517,3.666,5.748,5.748,0,0,1-1.364,2.249,4.3,4.3,0,0,1-1.947,1.1,9,9,0,0,1-2.254.285,8.249,8.249,0,0,1-3.3-.566,4.138,4.138,0,0,1-2.008-1.894,9.786,9.786,0,0,1-.991-3.429,40.723,40.723,0,0,1-.272-5.082,35.025,35.025,0,0,1,.32-5.157,9.59,9.59,0,0,1,1.1-3.429,4.592,4.592,0,0,1,2.035-1.894,7.465,7.465,0,0,1,3.118-.583,7.078,7.078,0,0,1,2.758.478,4.676,4.676,0,0,1,1.842,1.355,5.557,5.557,0,0,1,1.03,2.118,11.08,11.08,0,0,1,.32,2.789v1.342H372.08v-1.193A6.593,6.593,0,0,0,371.768,271.57Z" transform="translate(-363.599 -267.15)" fill="#fff"/>
      <path id="Path_7" data-name="Path 7" d="M396.083,273.147a9.881,9.881,0,0,1,1.109-3.429,4.723,4.723,0,0,1,2.035-1.938,8.144,8.144,0,0,1,6.183,0,4.7,4.7,0,0,1,2.035,1.938,9.882,9.882,0,0,1,1.109,3.429,38.918,38.918,0,0,1,0,10.164,9.882,9.882,0,0,1-1.109,3.429,4.449,4.449,0,0,1-2.035,1.894,8.73,8.73,0,0,1-6.183,0,4.428,4.428,0,0,1-2.035-1.894,9.881,9.881,0,0,1-1.109-3.429,32.907,32.907,0,0,1-.333-5.082A32.365,32.365,0,0,1,396.083,273.147Zm4.661,8.647a14.414,14.414,0,0,0,.219,2.249,2.308,2.308,0,0,0,.491,1.162,1.3,1.3,0,0,0,1.728,0,2.347,2.347,0,0,0,.491-1.162,15.036,15.036,0,0,0,.219-2.249q.053-1.414.053-3.565t-.053-3.565a15.036,15.036,0,0,0-.219-2.249,2.347,2.347,0,0,0-.491-1.162,1.3,1.3,0,0,0-1.728,0,2.347,2.347,0,0,0-.491,1.162,14.471,14.471,0,0,0-.219,2.249q-.053,1.414-.053,3.565C400.7,279.663,400.709,280.851,400.744,281.794Z" transform="translate(-381.315 -267.161)" fill="#fff"/>
      <path id="Path_8" data-name="Path 8" d="M433.273,268.12v16.759h5.9v4.534H428.48V268.124h4.793Z" transform="translate(-399.693 -267.695)" fill="#fff"/>
      <path id="Path_9" data-name="Path 9" d="M460.063,268.12v21.289H455.27V268.12Z" transform="translate(-414.736 -267.695)" fill="#fff"/>
      <path id="Path_10" data-name="Path 10" d="M475.443,268.12l3.091,13.12h.053V268.12h4.486v21.289h-5.257l-3.2-13.15h-.053v13.15H470.08V268.12Z" transform="translate(-423.052 -267.695)" fill="#fff"/>
      <path id="Path_11" data-name="Path 11" d="M362.83,327.5V322.79h11.958V327.5h-3.609v16.579h-4.793V327.5Z" transform="translate(-362.83 -298.392)" fill="#fff"/>
      <path id="Path_12" data-name="Path 12" d="M396.893,338.136a3.8,3.8,0,0,0,.386,2.074,1.331,1.331,0,0,0,2.114,0,3.784,3.784,0,0,0,.386-2.074V322.78h4.793v13.953a14.187,14.187,0,0,1-.412,3.727,6.006,6.006,0,0,1-1.2,2.385,3.982,3.982,0,0,1-1.947,1.223,11.024,11.024,0,0,1-5.345,0,4,4,0,0,1-1.96-1.223,5.894,5.894,0,0,1-1.2-2.385,14.187,14.187,0,0,1-.412-3.727V322.78h4.793Z" transform="translate(-379.265 -298.387)" fill="#fff"/>
      <path id="Path_13" data-name="Path 13" d="M431.568,322.78a5.9,5.9,0,0,1,2.333.417,3.948,3.948,0,0,1,1.57,1.18,4.8,4.8,0,0,1,.877,1.8,9.023,9.023,0,0,1,.272,2.267,7,7,0,0,1-.745,3.46,3.259,3.259,0,0,1-2.4,1.609v.061a2.79,2.79,0,0,1,2.372,1.4,7.3,7.3,0,0,1,.645,3.368v2.684c0,.3.009.583.026.851s.044.513.079.732a2.5,2.5,0,0,0,.127.509c.07.118.136.232.206.342a1.048,1.048,0,0,0,.333.311v.3h-5.1a4.227,4.227,0,0,1-.272-.982c-.061-.377-.1-.754-.127-1.131s-.044-.741-.053-1.087-.013-.631-.013-.851v-1.429a11.7,11.7,0,0,0-.079-1.491,2.572,2.572,0,0,0-.272-.938,1.094,1.094,0,0,0-.491-.478,1.8,1.8,0,0,0-.732-.136h-1.258v8.529H424.07V322.789h7.5Zm-1.754,9.007a1.726,1.726,0,0,0,1.522-.7,3.146,3.146,0,0,0,.491-1.833,2.963,2.963,0,0,0-.478-1.907,1.938,1.938,0,0,0-1.561-.566h-.925v5.008Z" transform="translate(-397.217 -298.387)" fill="#fff"/>
      <path id="Path_14" data-name="Path 14" d="M461.593,322.78v8.169h.053l3.556-8.169h5.1l-4.639,9.3,5.2,11.988h-5.464l-2.811-7.424-1,1.789v5.635H456.8V322.784h4.793Z" transform="translate(-415.595 -298.387)" fill="#fff"/>
      <path id="Path_15" data-name="Path 15" d="M495.733,322.78v21.289H490.94V322.78Z" transform="translate(-434.765 -298.387)" fill="#fff"/>
      <path id="Path_16" data-name="Path 16" d="M511.113,322.78,514.2,335.9h.053V322.78h4.486v21.289h-5.258l-3.2-13.15h-.053v13.15H505.75V322.78Z" transform="translate(-443.081 -298.387)" fill="#fff"/>
      <path id="Path_17" data-name="Path 17" d="M551.347,331.962V343.53H548.1l-.1-1.877h-.053a2.987,2.987,0,0,1-.658,1.131,2.857,2.857,0,0,1-.952.671,4.517,4.517,0,0,1-1.136.311,8.733,8.733,0,0,1-1.223.088,5.144,5.144,0,0,1-2.885-.7,4.261,4.261,0,0,1-1.6-2.1,12.069,12.069,0,0,1-.684-3.46c-.1-1.372-.14-2.942-.14-4.709a36.847,36.847,0,0,1,.272-4.74,9.9,9.9,0,0,1,1.03-3.46,5.153,5.153,0,0,1,2.1-2.131,7.186,7.186,0,0,1,3.455-.732,6.8,6.8,0,0,1,2.333.386,4.475,4.475,0,0,1,1.842,1.254,6.025,6.025,0,0,1,1.21,2.223,10.753,10.753,0,0,1,.438,3.293h-4.644a8.575,8.575,0,0,0-.259-2.473,1.092,1.092,0,0,0-1.109-.925,1.3,1.3,0,0,0-.938.329,2.193,2.193,0,0,0-.517,1.162,15.032,15.032,0,0,0-.219,2.249q-.053,1.414-.053,3.565t.053,3.565a14.409,14.409,0,0,0,.219,2.249,2.308,2.308,0,0,0,.491,1.162,1.157,1.157,0,0,0,.864.329,1.3,1.3,0,0,0,.684-.18,1.378,1.378,0,0,0,.5-.671,5.517,5.517,0,0,0,.32-1.372,17.56,17.56,0,0,0,.114-2.249h-1.7v-3.758h6.187Z" transform="translate(-461.566 -297.848)" fill="#fff"/>
      <path id="Path_18" data-name="Path 18" d="M569.46,327.5V322.79h11.958V327.5h-3.609v16.579h-4.793V327.5Z" transform="translate(-478.855 -298.392)" fill="#fff"/>
      <path id="Path_19" data-name="Path 19" d="M598.293,327.807a9.881,9.881,0,0,1,1.109-3.429,4.7,4.7,0,0,1,2.035-1.938,8.144,8.144,0,0,1,6.183,0,4.7,4.7,0,0,1,2.035,1.938,9.882,9.882,0,0,1,1.109,3.429,38.918,38.918,0,0,1,0,10.164,9.881,9.881,0,0,1-1.109,3.429,4.428,4.428,0,0,1-2.035,1.894,8.73,8.73,0,0,1-6.183,0A4.428,4.428,0,0,1,599.4,341.4a9.882,9.882,0,0,1-1.109-3.429,38.918,38.918,0,0,1,0-10.164Zm4.666,8.647a14.424,14.424,0,0,0,.219,2.249,2.308,2.308,0,0,0,.491,1.162,1.3,1.3,0,0,0,1.728,0,2.347,2.347,0,0,0,.491-1.162,15.031,15.031,0,0,0,.219-2.249q.053-1.414.053-3.565t-.053-3.565a15.033,15.033,0,0,0-.219-2.249,2.308,2.308,0,0,0-.491-1.162,1.3,1.3,0,0,0-1.728,0,2.347,2.347,0,0,0-.491,1.162,14.483,14.483,0,0,0-.219,2.249q-.053,1.414-.053,3.565T602.959,336.454Z" transform="translate(-494.858 -297.853)" fill="#fff"/>
      <path id="Path_20" data-name="Path 20" d="M636.043,322.78l3.091,13.12h.053V322.78h4.486v21.289h-5.258l-3.2-13.15h-.053v13.15H630.68V322.78Z" transform="translate(-513.23 -298.387)" fill="#fff"/>
      <path id="Path_21" data-name="Path 21" d="M370,412.52v5.9H365.67v-5.9Z" transform="translate(-364.425 -348.777)" fill="#fff"/>
      <path id="Path_22" data-name="Path 22" d="M386.008,380.89a1.04,1.04,0,0,0-1-.658,1.157,1.157,0,0,0-.864.329,2.347,2.347,0,0,0-.491,1.162,14.47,14.47,0,0,0-.219,2.249q-.053,1.414-.053,3.565t.053,3.565a14.413,14.413,0,0,0,.219,2.249,2.308,2.308,0,0,0,.491,1.162,1.157,1.157,0,0,0,.864.329,1.042,1.042,0,0,0,.724-.254,1.7,1.7,0,0,0,.438-.851,8.791,8.791,0,0,0,.219-1.6c.044-.667.066-1.5.066-2.521h4.639V391.2a10.894,10.894,0,0,1-.517,3.666,5.747,5.747,0,0,1-1.364,2.249,4.3,4.3,0,0,1-1.947,1.1,8.995,8.995,0,0,1-2.254.285,8.248,8.248,0,0,1-3.3-.566,4.138,4.138,0,0,1-2.008-1.894,9.787,9.787,0,0,1-.991-3.429,40.737,40.737,0,0,1-.272-5.082,35.016,35.016,0,0,1,.32-5.157,9.591,9.591,0,0,1,1.1-3.429,4.592,4.592,0,0,1,2.035-1.894,7.465,7.465,0,0,1,3.118-.583,7.079,7.079,0,0,1,2.758.478,4.676,4.676,0,0,1,1.842,1.355,5.557,5.557,0,0,1,1.03,2.118,11.079,11.079,0,0,1,.32,2.789v1.342h-4.644v-1.193A6.6,6.6,0,0,0,386.008,380.89Z" transform="translate(-371.595 -328.534)" fill="#fff"/>
      <path id="Path_23" data-name="Path 23" d="M410.313,382.467a9.882,9.882,0,0,1,1.109-3.429,4.722,4.722,0,0,1,2.035-1.938,8.144,8.144,0,0,1,6.183,0,4.7,4.7,0,0,1,2.035,1.938,9.881,9.881,0,0,1,1.109,3.429,32.906,32.906,0,0,1,.333,5.082,33.421,33.421,0,0,1-.333,5.082,9.881,9.881,0,0,1-1.109,3.429,4.449,4.449,0,0,1-2.035,1.894,8.73,8.73,0,0,1-6.183,0,4.428,4.428,0,0,1-2.035-1.894,9.882,9.882,0,0,1-1.109-3.429,38.918,38.918,0,0,1,0-10.164Zm4.666,8.647a14.413,14.413,0,0,0,.219,2.249,2.308,2.308,0,0,0,.491,1.162,1.3,1.3,0,0,0,1.728,0,2.347,2.347,0,0,0,.491-1.162,15.036,15.036,0,0,0,.219-2.249q.053-1.414.053-3.565t-.053-3.565a15.036,15.036,0,0,0-.219-2.249,2.308,2.308,0,0,0-.491-1.162,1.3,1.3,0,0,0-1.728,0,2.347,2.347,0,0,0-.491,1.162,14.471,14.471,0,0,0-.219,2.249q-.053,1.414-.053,3.565C414.926,388.983,414.944,390.167,414.979,391.114Z" transform="translate(-389.305 -328.545)" fill="#fff"/>
      <path id="Path_24" data-name="Path 24" d="M450.334,377.44l1.934,12.611h.053l1.934-12.611h6.854v21.289h-4.481V382.864h-.053l-2.552,15.865h-3.455l-2.552-15.865h-.053v15.865H443.48V377.44Z" transform="translate(-408.116 -329.079)" fill="#fff"/>
    </g>
  </g>
</svg>
