<?xml version="1.0" encoding="utf-8"?>
<!-- Generator: Adobe Illustrator 23.0.1, SVG Export Plug-In . SVG Version: 6.00 Build 0)  -->
<svg version="1.1" id="Layer_1" xmlns="http://www.w3.org/2000/svg" xmlns:xlink="http://www.w3.org/1999/xlink" x="0px" y="0px"
	 viewBox="0 0 201 254.3" style="enable-background:new 0 0 201 254.3;" xml:space="preserve">
<style type="text/css">
	.st0{fill:none;}
	.st1{fill:#28A6EA;}
</style>
<g id="Group_356" transform="translate(-6.16)">
	<g id="Path_21451" transform="translate(5.569)">
		<path class="st0" d="M117.7,103.9l12.1-1c18.2,1,33.3-4,45.4-14.1c29.3-27.2,26.2-80.7,26.2-82.8V0h-34.3l2,7.1c1,3,0,6.1-1,8.1
			c-4,6.1-13.1,9.1-17.2,10.1l0,0v-7.1h8.1V9.1l0,0c-0.2-3.2-2.8-5.8-6.1-6.1H49.1c-3.2-0.1-5.9,2.4-6.1,5.6c0,0.2,0,0.3,0,0.5l0,0
			v9.1h8.1v7.1l0,0c-3-1-13.1-4-17.2-10.1c-1-2-2-5-1-8.1L35,0H0.7v6.1c0,2-3,55.5,26.2,82.8C39,99.9,54.2,105,72.3,102.9l12.1,1
			c2,3,4,5,6.1,8.1v25.2c-9.1,9.1-26.2,13.1-26.2,13.1v6.1h-7.1v9.1h5V224h-5v10.1h-3v10.1l0,0v5c-0.2,2.6,1.8,4.9,4.5,5
			c0.2,0,0.4,0,0.6,0H142c2.6,0.2,4.9-1.8,5-4.5c0-0.2,0-0.4,0-0.6l0,0v-17.2h-4V222h-5v-58.5h5v-9.1h-6.1v-6.1
			c0,0-17.2-4-26.2-13.1V110C113.7,109,115.7,107,117.7,103.9z M158.1,40.4v-5c6.1-2,14.1-6.1,19.2-13.1c2-3,3.1-6.5,3-10.1h9.1
			c0,14.1-2,49.4-22.2,67.6c-10.1,9.1-23.2,13.1-39.4,11.1c9.1-12.1,18.2-28.3,21.2-50.5L158.1,40.4z M34,79.7
			C13.8,61.6,11.8,26.2,11.8,12.1h9.1c-0.1,3.6,1,7.1,3,10.1c5,8.1,14.1,12.1,20.2,13.1v5h8.1c3,22.2,12.1,38.3,21.2,50.5
			C57.2,91.8,44.1,88.8,34,79.7z"/>
		<path class="st1" d="M2.7,2v4.1c0,0.1,0,0.3,0,0.6c0,1.6-0.2,5.7,0.1,11.6c0.3,7.4,1.2,14.7,2.4,21.6c1.7,9.3,4.3,17.8,7.6,25.2
			c4,9,9.2,16.5,15.5,22.3c5,4.6,10.6,8.1,16.6,10.4c6.1,2.4,12.8,3.6,19.8,3.6c2.4,0,4.9-0.1,7.5-0.4l0.2,0l0.2,0l12.1,1l1,0.1
			l0.5,0.8c1,1.4,1.9,2.6,2.9,3.9c1,1.3,2.1,2.6,3.1,4.2l0.3,0.5v0.6v25.2v0.8l-0.6,0.6c-2.2,2.2-5,4.3-8.4,6.2
			c-2.6,1.5-5.6,2.9-8.9,4.2c-3.6,1.4-6.7,2.4-8.4,2.8v4.5v2h-2h-5.1v5.1h3h2v2V224v2h-2h-3v8.1v2h-2h-1v8.1v5
			c0,0.9,0.3,1.7,0.8,2.2c0.5,0.5,1.3,0.8,2.2,0.8H142c0.9,0,1.7-0.3,2.2-0.8c0.5-0.5,0.8-1.3,0.8-2.2v-7.1v-8.1h-2h-2v-2V224h-3h-2
			v-2v-58.5v-2h2h3v-5.1h-4.1h-2v-2v-4.5c-1.8-0.5-4.8-1.4-8.4-2.8c-3.2-1.3-6.2-2.7-8.9-4.2c-3.3-1.9-6.2-4-8.4-6.2l-0.6-0.6v-0.8
			V110v-1.4l1.4-0.5c2.3-0.8,4-2.3,6-5.3l0.5-0.8l1-0.1l12.1-1l0.1,0l0.1,0c1.5,0.1,3,0.1,4.4,0.1c7.7,0,15-1.2,21.7-3.5
			c6.5-2.3,12.5-5.7,17.9-10.2c6.2-5.8,11.4-13.3,15.4-22.3c3.3-7.4,5.9-15.9,7.6-25.2c1.3-6.9,2.1-14.2,2.4-21.6
			c0.3-5.9,0.1-10,0.1-11.6c0-0.3,0-0.5,0-0.6V2h-29.7l1.3,4.5c0.9,2.9,0.6,6.2-1.1,9.6l-0.1,0.1l-0.1,0.1c-2,2.9-5.1,5.5-9.3,7.6
			c-3.7,1.8-7.2,2.9-9,3.3l-2.5,0.6v-2.6v-7.1v-2h2h2h4.1v-4.1v-3c0-0.9-0.5-1.9-1.3-2.7C155,5.5,154,5,153.1,5H49.1
			c-1.3,0-2.3,0.4-3,1.2c-0.6,0.7-1,1.8-1,2.8v3v4.1h4.1h2h2v2v7.1V28l-2.6-0.9c-0.2-0.1-0.4-0.1-0.6-0.2c-1.8-0.6-5.1-1.7-8.5-3.4
			c-4.2-2.1-7.3-4.6-9.2-7.3l-0.1-0.1L32.2,16c-1.7-3.4-2.1-6.7-1.1-9.6L32.3,2H2.7 M46.1,38.4h6.1h1.7l0.2,1.7
			c0.7,5.2,1.8,10.3,3.2,15.3c1.3,4.5,3,8.9,4.9,13.2c3.3,7.2,7.4,14.1,12.6,21.1l2.2,3l-3.7,0.2c-2,0.1-4,0.2-5.9,0.2
			c-7.2,0-13.5-0.9-19.2-2.7c-2.9-1-5.8-2.2-8.3-3.7c-2.6-1.5-5.1-3.3-7.4-5.4c-4.9-4.4-9.1-10.1-12.4-16.8
			c-2.8-5.7-5.1-12.3-6.8-19.5c-3-12.6-3.6-24.8-3.6-32.8v-2h2h9.1h2v2c0,3.5,0.8,6.2,2.7,9l0,0l0,0c2.1,3.4,5.2,6.3,9,8.5
			c3.1,1.8,6.6,3.1,9.8,3.7l1.7,0.3v1.7V38.4 M135.8,93.3c-2.6,0-5.4-0.2-8.2-0.5l-3.4-0.4l2.1-2.8c5.2-7,9.4-13.9,12.6-21.1
			c1.9-4.3,3.6-8.7,4.9-13.2c1.4-4.9,2.5-10,3.2-15.3l0.2-1.7h1.7h7.1v-3v-1.4l1.4-0.5c4.6-1.5,13-5.2,18.2-12.4
			c1.9-2.8,2.7-5.5,2.7-9v-2h2h9.1h2v2c0,8-0.6,20.2-3.6,32.8c-1.7,7.2-4,13.8-6.8,19.5c-3.4,6.8-7.6,12.4-12.4,16.8
			C159.6,89.3,148.6,93.3,135.8,93.3 M0.7,0H35l-2,7.1c-1,3,0,6.1,1,8.1c4,6.1,14.1,9.1,17.2,10.1c0-2,0-5,0-7.1h-2h-6.1v-6.1v-3
			c0-3,2-6.1,6.1-6.1h103.9c3,0,6.1,3,6.1,6.1v3v6.1h-6.1h-2c0,3,0,5,0,7.1c4-1,13.1-4,17.2-10.1c1-2,2-5,1-8.1l-2-7.1h34.3v6.1
			c0,2,3,55.5-26.2,82.8c-11.1,9.2-24.7,14.3-40.9,14.3c-1.5,0-3,0-4.5-0.1l-12.1,1c-2,3-4,5-7.1,6.1v25.2
			c9.1,9.1,26.2,13.1,26.2,13.1v6.1h6.1v9.1h-5V222h5v10.1h4v10.1v7.1c0,3-2,5-5,5H59.2c-3,0-5-2-5-5v-5v-10.1h3V224h5v-58.5h-5
			v-9.1h7.1v-6.1c0,0,17.2-4,26.2-13.1V112c-2-3-4-5-6.1-8.1l-12.1-1c-2.6,0.3-5.2,0.4-7.7,0.4c-14.8,0-27.4-5.1-37.7-14.6
			C-2.3,61.6,0.7,8.1,0.7,6.1V0z M11.8,12.1c0,14.1,2,49.4,22.2,67.6c8.9,8,20.1,11.3,33.6,11.3c1.9,0,3.8-0.1,5.7-0.2
			c-9.1-12.1-18.2-28.3-21.2-50.5h-8.1v-5c-6.1-1-15.1-5-20.2-13.1c-2-3-3-6.1-3-10.1H11.8z M135.8,91.3c12.6,0,23-4.1,31.4-11.6
			c20.2-18.2,22.2-53.5,22.2-67.6h-9.1c0,4-1,7.1-3,10.1c-5,7.1-13.1,11.1-19.2,13.1v5H149c-3,22.2-12.1,38.3-21.2,50.5
			C130.6,91.2,133.2,91.3,135.8,91.3z"/>
	</g>
</g>
</svg>
