<svg xmlns="http://www.w3.org/2000/svg" xmlns:xlink="http://www.w3.org/1999/xlink" width="1192" height="816" viewBox="0 0 1192 816">
  <defs>
    <filter id="Path_21429" x="62.406" y="257.1" width="1075.353" height="307.784" filterUnits="userSpaceOnUse">
      <feOffset input="SourceAlpha"/>
      <feGaussianBlur stdDeviation="11" result="blur"/>
      <feFlood flood-color="#100727"/>
      <feComposite operator="in" in2="blur"/>
      <feComposite in="SourceGraphic"/>
    </filter>
    <clipPath id="clip-path">
      <rect id="Rectangle_57" data-name="Rectangle 57" width="779" height="370" transform="translate(532 3928)" fill="#fff" stroke="#707070" stroke-width="1"/>
    </clipPath>
    <clipPath id="clip-path-2">
      <rect id="Rectangle_58" data-name="Rectangle 58" width="754" height="212" transform="translate(641 3482)" fill="#fff" stroke="#707070" stroke-width="1"/>
    </clipPath>
  </defs>
  <g id="Group_337" data-name="Group 337" transform="translate(-280 -3482)">
    <g id="Group_335" data-name="Group 335">
      <g transform="matrix(1, 0, 0, 1, 280, 3482)" filter="url(#Path_21429)">
        <path id="Path_21429-2" data-name="Path 21429" d="M-398.388-109.9V0h-12.874L-477.2-81.954V0h-15.7V-109.9h12.874l65.94,81.954V-109.9Zm114.3,96.241V0h-79.756V-109.9h77.558v13.659h-61.858v33.755h55.107v13.345h-55.107v35.482ZM-189.263,0l-32.97-45.373L-254.732,0h-18.055L-231.5-56.363-270.275-109.9h17.9l30.772,42.233,30.458-42.233h17.113l-38.779,53.066L-171.208,0ZM-134-96.241h-37.68V-109.9h90.9v13.659h-37.68V0H-134ZM61.465-13.659V0H-18.291V-109.9H59.267v13.659H-2.591v33.755H52.516v13.345H-2.591v35.482ZM182.356-109.9,134.157,0H118.614L70.258-109.9H87.214l39.564,90.275L166.656-109.9Zm95.3,96.241V0H197.9V-109.9h77.558v13.659H213.6v33.755h55.107v13.345H213.6v35.482ZM399.172-109.9V0H386.3l-65.94-81.954V0h-15.7V-109.9h12.874l65.94,81.954V-109.9Zm56.363,13.659h-37.68V-109.9h90.9v13.659h-37.68V0H455.536ZM-453.023,20.1q14.6,0,25.356,4.867A37.67,37.67,0,0,1-411.1,38.783q5.809,8.949,5.809,21.195A38.161,38.161,0,0,1-411.1,81.094,37,37,0,0,1-427.668,94.91Q-438.422,99.7-453.023,99.7H-475.16V130h-25.434V20.1Zm-1.413,58.875q11.461,0,17.427-4.946t5.966-14.051q0-9.263-5.966-14.208t-17.427-4.946H-475.16V78.975Zm118.849,52.909a64.147,64.147,0,0,1-30.85-7.379,54.767,54.767,0,0,1-21.509-20.331,55.5,55.5,0,0,1-7.772-29.123,55.5,55.5,0,0,1,7.772-29.124,54.767,54.767,0,0,1,21.509-20.332,64.147,64.147,0,0,1,30.85-7.379,63.691,63.691,0,0,1,30.772,7.379,55.476,55.476,0,0,1,21.509,20.332,55.081,55.081,0,0,1,7.85,29.124,55.081,55.081,0,0,1-7.85,29.123A55.476,55.476,0,0,1-304.815,124.5,63.691,63.691,0,0,1-335.587,131.884Zm0-21.666A34.874,34.874,0,0,0-318,105.743a32.11,32.11,0,0,0,12.324-12.481A36.691,36.691,0,0,0-301.2,75.05a36.691,36.691,0,0,0-4.474-18.212A32.11,32.11,0,0,0-318,44.357a34.874,34.874,0,0,0-17.584-4.475,34.874,34.874,0,0,0-17.584,4.475A32.109,32.109,0,0,0-365.5,56.838,36.691,36.691,0,0,0-369.97,75.05,36.691,36.691,0,0,0-365.5,93.262a32.11,32.11,0,0,0,12.325,12.481A34.874,34.874,0,0,0-335.587,110.218Zm112.255,21.666a89.919,89.919,0,0,1-25.2-3.533q-12.167-3.533-19.547-9.185l8.635-19.154a58.6,58.6,0,0,0,16.8,8.321,63.1,63.1,0,0,0,19.468,3.14q10.833,0,16.014-3.218t5.181-8.557a8.179,8.179,0,0,0-3.062-6.515,23.209,23.209,0,0,0-7.85-4.161q-4.789-1.57-12.952-3.454A179.05,179.05,0,0,1-246.412,79.6a33.415,33.415,0,0,1-13.738-9.577q-5.731-6.594-5.73-17.584A30.588,30.588,0,0,1-260.7,35.093q5.181-7.771,15.622-12.325t25.512-4.553A84.477,84.477,0,0,1-199,20.728a60.758,60.758,0,0,1,17.584,7.222l-7.85,19.311q-15.229-8.635-30.458-8.635-10.676,0-15.779,3.454a10.543,10.543,0,0,0-5.1,9.106q0,5.652,5.887,8.4T-216.739,65a179.05,179.05,0,0,1,20.567,5.966,34.058,34.058,0,0,1,13.737,9.42q5.731,6.437,5.731,17.427a30.009,30.009,0,0,1-5.26,17.191q-5.259,7.771-15.779,12.325T-223.333,131.884Zm82.111-91.06h-35.168V20.1h95.77V40.824h-35.168V130h-25.434ZM-22.529,20.1q14.6,0,25.356,4.867A37.67,37.67,0,0,1,19.389,38.783Q25.2,47.732,25.2,59.978a38.161,38.161,0,0,1-5.809,21.117A37,37,0,0,1,2.826,94.91Q-7.928,99.7-22.529,99.7H-44.667V130H-70.1V20.1Zm-1.413,58.875q11.461,0,17.427-4.946T-.549,59.978q0-9.263-5.966-14.208t-17.427-4.946H-44.667V78.975ZM94.907,131.884a64.147,64.147,0,0,1-30.85-7.379,54.767,54.767,0,0,1-21.509-20.331A55.5,55.5,0,0,1,34.776,75.05a55.5,55.5,0,0,1,7.771-29.124A54.767,54.767,0,0,1,64.056,25.595a64.147,64.147,0,0,1,30.85-7.379,63.691,63.691,0,0,1,30.772,7.379A54.994,54.994,0,0,1,155.038,75.05,54.994,54.994,0,0,1,125.679,124.5,63.691,63.691,0,0,1,94.907,131.884Zm0-21.666a34.874,34.874,0,0,0,17.584-4.475,32.11,32.11,0,0,0,12.325-12.481A36.691,36.691,0,0,0,129.29,75.05a36.691,36.691,0,0,0-4.474-18.212,32.109,32.109,0,0,0-12.325-12.481,34.874,34.874,0,0,0-17.584-4.475,34.874,34.874,0,0,0-17.584,4.475A32.109,32.109,0,0,0,65,56.838,36.691,36.691,0,0,0,60.524,75.05,36.691,36.691,0,0,0,65,93.262a32.11,32.11,0,0,0,12.324,12.481A34.874,34.874,0,0,0,94.907,110.218ZM271.846,20.1V130H250.965L196.172,63.275V130h-25.12V20.1H192.09l54.636,66.725V20.1Zm108.016,89.49V130H294.768V20.1H377.82V40.51H320.044V64.374H371.07V84.156H320.044V109.59ZM396.974,20.1H446.9q17.9,0,31.635,6.83a51.134,51.134,0,0,1,21.352,19.232q7.614,12.4,7.615,28.888t-7.615,28.888a51.134,51.134,0,0,1-21.352,19.232Q464.8,130,446.9,130H396.974Zm48.67,89.019q16.485,0,26.3-9.185t9.813-24.884q0-15.7-9.812-24.884t-26.3-9.185H422.408v68.138Z" transform="translate(596 400)" fill="#fff"/>
      </g>
      <g id="Rectangle_55" data-name="Rectangle 55" transform="translate(280 3691)" fill="none" stroke="#fff" stroke-width="12">
        <rect width="1192" height="398" stroke="none"/>
        <rect x="6" y="6" width="1180" height="386" fill="none"/>
      </g>
    </g>
    <g id="Mask_Group_4" data-name="Mask Group 4" transform="translate(-108)" clip-path="url(#clip-path)">
      <line id="Line_11" data-name="Line 11" y1="423" x2="612" transform="translate(531.5 4079.5)" fill="none" stroke="#fff" stroke-width="12"/>
    </g>
    <g id="Mask_Group_5" data-name="Mask Group 5" transform="translate(-127)" clip-path="url(#clip-path-2)">
      <line id="Line_10" data-name="Line 10" y1="423" x2="612" transform="translate(837.5 3270.5)" fill="none" stroke="#fff" stroke-width="12"/>
    </g>
  </g>
</svg>
