<svg id="Group_323" data-name="Group 323" xmlns="http://www.w3.org/2000/svg" viewBox="0 0 127.95 127.9">
  <defs>
    <style>
      .cls-1 {
        fill: #fff;
      }
    </style>
  </defs>
  <path id="Path_21417" data-name="Path 21417" class="cls-1" d="M63.925,11.536c17.08,0,19.078.05,25.82.35a36.549,36.549,0,0,1,11.886,2.2,19.525,19.525,0,0,1,7.341,4.794,19.525,19.525,0,0,1,4.794,7.341c.9,2.247,1.9,5.643,2.2,11.886.3,6.742.35,8.74.35,25.82s-.05,19.078-.35,25.82a36.549,36.549,0,0,1-2.2,11.886,21.344,21.344,0,0,1-12.136,12.136c-2.247.9-5.643,1.9-11.886,2.2-6.742.3-8.74.35-25.82.35s-19.078-.05-25.82-.35a36.549,36.549,0,0,1-11.886-2.2,19.525,19.525,0,0,1-7.341-4.794,19.525,19.525,0,0,1-4.794-7.341c-.9-2.247-1.9-5.643-2.2-11.886-.3-6.742-.35-8.74-.35-25.82s.05-19.078.35-25.82a36.549,36.549,0,0,1,2.2-11.886,19.525,19.525,0,0,1,4.794-7.341,19.525,19.525,0,0,1,7.341-4.794c2.247-.9,5.643-1.9,11.886-2.2,6.742-.3,8.74-.35,25.82-.35M63.925,0C46.545,0,44.4.05,37.556.4A47.259,47.259,0,0,0,22.074,3.346a31.086,31.086,0,0,0-11.337,7.391A31.741,31.741,0,0,0,3.346,22.074,46.05,46.05,0,0,0,.4,37.606C.05,44.4,0,46.545,0,63.925S.05,83.452.4,90.294a47.873,47.873,0,0,0,2.947,15.532,31.086,31.086,0,0,0,7.391,11.337,31.741,31.741,0,0,0,11.337,7.391A46.05,46.05,0,0,0,37.606,127.5c6.842.3,8.989.4,26.369.4s19.527-.05,26.369-.4a47.873,47.873,0,0,0,15.532-2.947,31.086,31.086,0,0,0,11.337-7.391,31.742,31.742,0,0,0,7.391-11.337,46.05,46.05,0,0,0,2.947-15.532c.3-6.842.4-8.989.4-26.369s-.05-19.527-.4-26.369A47.873,47.873,0,0,0,124.6,22.024a31.086,31.086,0,0,0-7.391-11.337,31.951,31.951,0,0,0-11.437-7.341A46.05,46.05,0,0,0,90.244.4C83.452.05,81.3,0,63.925,0Zm0,31.113A32.812,32.812,0,1,0,96.737,63.925,32.8,32.8,0,0,0,63.925,31.113Zm0,54.136A21.325,21.325,0,1,1,85.25,63.925,21.314,21.314,0,0,1,63.925,85.25Zm41.8-55.435a7.666,7.666,0,1,1-7.641-7.691A7.694,7.694,0,0,1,105.726,29.815Z"/>
</svg>
