<svg xmlns="http://www.w3.org/2000/svg" viewBox="0 0 24.261 24.251">
  <defs>
    <style>
      .cls-1 {
        fill: #fff;
      }
    </style>
  </defs>
  <g id="Group_324" data-name="Group 324" transform="translate(0)">
    <path id="Path_21417" data-name="Path 21417" class="cls-1" d="M12.121,2.187c3.239,0,3.617.009,4.9.066a6.93,6.93,0,0,1,2.254.417,3.7,3.7,0,0,1,1.392.909,3.7,3.7,0,0,1,.909,1.392,6.677,6.677,0,0,1,.417,2.254c.057,1.278.066,1.657.066,4.9s-.009,3.617-.066,4.9a6.93,6.93,0,0,1-.417,2.254,4.047,4.047,0,0,1-2.3,2.3,6.677,6.677,0,0,1-2.254.417c-1.278.057-1.657.066-4.9.066s-3.617-.009-4.9-.066a6.93,6.93,0,0,1-2.254-.417,3.7,3.7,0,0,1-1.392-.909A3.7,3.7,0,0,1,2.67,19.27a6.677,6.677,0,0,1-.417-2.254c-.057-1.278-.066-1.657-.066-4.9s.009-3.617.066-4.9A6.93,6.93,0,0,1,2.67,4.971a3.7,3.7,0,0,1,.909-1.392A3.7,3.7,0,0,1,4.971,2.67a6.677,6.677,0,0,1,2.254-.417c1.278-.057,1.657-.066,4.9-.066m0-2.187c-3.3,0-3.7.009-5,.076A8.961,8.961,0,0,0,4.185.634a5.894,5.894,0,0,0-2.15,1.4,6.018,6.018,0,0,0-1.4,2.15A8.732,8.732,0,0,0,.076,7.13C.009,8.418,0,8.826,0,12.121s.009,3.7.076,5a9.077,9.077,0,0,0,.559,2.945,5.894,5.894,0,0,0,1.4,2.15,6.019,6.019,0,0,0,2.15,1.4,8.732,8.732,0,0,0,2.945.559c1.3.057,1.7.076,5,.076s3.7-.009,5-.076a9.077,9.077,0,0,0,2.945-.559,5.894,5.894,0,0,0,2.15-1.4,6.019,6.019,0,0,0,1.4-2.15,8.732,8.732,0,0,0,.559-2.945c.057-1.3.076-1.7.076-5s-.009-3.7-.076-5a9.077,9.077,0,0,0-.559-2.945,5.894,5.894,0,0,0-1.4-2.15A6.058,6.058,0,0,0,20.056.634,8.732,8.732,0,0,0,17.111.076C15.823.009,15.416,0,12.121,0Zm0,5.9a6.221,6.221,0,1,0,6.221,6.221A6.22,6.22,0,0,0,12.121,5.9Zm0,10.265a4.043,4.043,0,1,1,4.043-4.043A4.041,4.041,0,0,1,12.121,16.164ZM20.047,5.653A1.454,1.454,0,1,1,18.6,4.195,1.459,1.459,0,0,1,20.047,5.653Z" transform="translate(0 0)"/>
  </g>
</svg>
