<svg xmlns="http://www.w3.org/2000/svg" width="51.033" height="44.331" viewBox="0 0 51.033 44.331">
  <g id="photo-camera" transform="translate(0 -33.859)">
    <g id="Group_386" data-name="Group 386" transform="translate(0 33.859)">
      <path id="Path_21464" data-name="Path 21464" d="M44.191,42.327,38.835,42.3,33.7,34.644a1.7,1.7,0,0,0-1.4-.785H18.478a1.69,1.69,0,0,0-1.374.757L11.8,42.3l-4.963.028A6.869,6.869,0,0,0,0,49.169V71.292a6.917,6.917,0,0,0,6.842,6.9H44.191a6.917,6.917,0,0,0,6.842-6.9V49.169A6.869,6.869,0,0,0,44.191,42.327Zm3.477,28.965a3.543,3.543,0,0,1-3.477,3.533H6.842a3.543,3.543,0,0,1-3.477-3.533V49.169a3.494,3.494,0,0,1,3.477-3.477H12.7a1.69,1.69,0,0,0,1.374-.757l5.3-7.683H31.4l5.1,7.627a1.731,1.731,0,0,0,1.374.757l6.281.056a3.494,3.494,0,0,1,3.477,3.477V71.292h.028Z" transform="translate(0 -33.859)" fill="#fff"/>
      <path id="Path_21465" data-name="Path 21465" d="M150.75,160.225a11.917,11.917,0,1,0,11.917,11.917A11.925,11.925,0,0,0,150.75,160.225Zm0,20.469a8.552,8.552,0,1,1,8.552-8.552A8.568,8.568,0,0,1,150.75,180.694Z" transform="translate(-125.093 -147.719)" fill="#fff"/>
      <circle id="Ellipse_63" data-name="Ellipse 63" cx="0.645" cy="0.645" r="0.645" transform="translate(40.966 16.796)" fill="#fff"/>
      <path id="Path_21466" data-name="Path 21466" d="M399.277,186.575A2.327,2.327,0,1,0,401.6,188.9,2.322,2.322,0,0,0,399.277,186.575Zm0,3.365a1.035,1.035,0,0,1-1.038-1.037,1.037,1.037,0,0,1,2.075,0A1.035,1.035,0,0,1,399.277,189.94Z" transform="translate(-357.666 -171.462)" fill="#fff"/>
    </g>
  </g>
</svg>
