<?xml version="1.0" encoding="utf-8"?>
<!-- Generator: Adobe Illustrator 23.0.1, SVG Export Plug-In . SVG Version: 6.00 Build 0)  -->
<svg version="1.1" id="Layer_1" xmlns="http://www.w3.org/2000/svg" xmlns:xlink="http://www.w3.org/1999/xlink" x="0px" y="0px"
	 viewBox="0 0 137.3 75.5" style="enable-background:new 0 0 137.3 75.5;" xml:space="preserve">
<style type="text/css">
	.st0{fill:none;stroke:#5C8CA5;}
</style>
<g id="Group_363" transform="translate(0.5 0.5)">
	<g id="Group_362">
		<g id="Group_361">
			<path id="Path_21454" class="st0" d="M111.8,37.9H90.5v-9.3H74.1V0h-5.6l-7.7,3.6l1.3,4.8l5.2-2.3l0,0v22.4H44.7v18.1H32.3v-5.2
				H21.5l2.9-2c3.9-3.6,7.7-7.7,7.7-12c0-5.2-3.6-8.8-10.1-8.8c-3.3-0.1-6.6,0.9-9.3,2.9l2,4.8c1.7-1.5,3.9-2.3,6.1-2.3
				c3.2,0,4.8,2,4.8,3.9c0,3.2-3.2,6.5-9.3,12l-3.6,3.2v3.9H0v27.3h136.3V38.2C135.9,37.9,111.8,37.9,111.8,37.9z"/>
			<path id="Path_21455" class="st0" d="M123.5,29.8c0-3.5-2.7-6.4-6.1-6.8l0,0c3.6-1.3,5.2-3.6,5.2-6.5c0-3.9-3.2-7.2-9.3-7.2
				c-3,0.1-6,0.8-8.8,2l1.3,4.8c1.9-1,4-1.6,6.1-1.6c2.9,0,3.9,1.3,3.9,2.9c0,2.3-2.9,3.2-5.2,3.2h-2.3v4.8h2.9
				c2.9,0,5.6,1.3,5.6,3.9c0,2-1.6,3.6-5.2,3.6c-2.9,0-5.2-1.3-6.5-1.6l-1.3,4.9c1.6,1.3,4.8,2,8.4,2C119,38.6,123.5,35,123.5,29.8z
				"/>
		</g>
	</g>
</g>
</svg>
