<svg xmlns="http://www.w3.org/2000/svg" xmlns:xlink="http://www.w3.org/1999/xlink" width="963" height="677" viewBox="0 0 963 677">
  <defs>
    <clipPath id="clip-path">
      <rect id="Rectangle_61" data-name="Rectangle 61" width="779" height="299" transform="translate(532 3928)" fill="#fff" stroke="#707070" stroke-width="13"/>
    </clipPath>
    <clipPath id="clip-path-2">
      <rect id="Rectangle_62" data-name="Rectangle 62" width="754" height="155" transform="translate(641 3539)" fill="#fff" stroke="#707070" stroke-width="13"/>
    </clipPath>
  </defs>
  <g id="Group_337" data-name="Group 337" transform="translate(-120 -1914)">
    <g id="Group_336" data-name="Group 336">
      <rect id="Rectangle_59" data-name="Rectangle 59" width="963" height="674" transform="translate(120 1916)" fill="#da383f" opacity="0.95"/>
      <path id="Path_21431" data-name="Path 21431" d="M154.25,242,112.5,183.5a127.683,127.683,0,0,1-17,1.25h-50V242H32.75V67H95.5q33,0,51.75,15.625T166,126q0,20.75-10.625,34.875T125,180.75L168.75,242ZM95.5,173.5q28,0,42.75-12.375T153,126q0-22.75-14.75-35.125T95.5,78.5h-50v95Zm228,19.25H222L199.75,242H186L266.5,67h12.75l80.5,175H346ZM318.75,182l-46-101L227,182ZM465.5,243.25q-25.75,0-46.375-11.5a84.963,84.963,0,0,1-32.5-31.75q-11.875-20.25-11.875-45.5T386.625,109a84.963,84.963,0,0,1,32.5-31.75q20.625-11.5,46.375-11.5a97.12,97.12,0,0,1,35,6.125A72.125,72.125,0,0,1,527.75,90l-8,8.25Q498.75,77.5,466,77.5a80.961,80.961,0,0,0-40,10,73.17,73.17,0,0,0-28.25,27.625A76.88,76.88,0,0,0,387.5,154.5a76.88,76.88,0,0,0,10.25,39.375A73.17,73.17,0,0,0,426,221.5a80.961,80.961,0,0,0,40,10q32.5,0,53.75-21l8,8.25A73.2,73.2,0,0,1,500.375,237,95.67,95.67,0,0,1,465.5,243.25ZM693.75,230.5V242H573V67H690V78.5H585.75v69H679v11.25H585.75V230.5Zm-636.527,29a40.831,40.831,0,0,1,16.958,3.255,25.193,25.193,0,0,1,11.077,9.24,27.707,27.707,0,0,1,0,28.3,24.743,24.743,0,0,1-11.077,9.24,41.413,41.413,0,0,1-16.958,3.2H42.418V333H25.408V259.5Zm-.945,39.375q7.665,0,11.655-3.307t3.99-9.4q0-6.195-3.99-9.5T56.278,273.36H42.418v25.515Zm78.435,35.385a42.9,42.9,0,0,1-20.632-4.935,36.627,36.627,0,0,1-14.385-13.6,39.094,39.094,0,0,1,0-38.955,36.627,36.627,0,0,1,14.385-13.6,45.489,45.489,0,0,1,41.213,0,37.488,37.488,0,0,1,0,66.15A42.6,42.6,0,0,1,134.712,334.26Zm0-14.49a23.323,23.323,0,0,0,11.76-2.992,21.474,21.474,0,0,0,8.242-8.348,26.284,26.284,0,0,0,0-24.36,21.474,21.474,0,0,0-8.242-8.348,24.6,24.6,0,0,0-23.52,0,21.474,21.474,0,0,0-8.242,8.348,26.284,26.284,0,0,0,0,24.36,21.474,21.474,0,0,0,8.242,8.348A23.323,23.323,0,0,0,134.712,319.77Zm74.025,14.49a60.136,60.136,0,0,1-16.852-2.363,39.524,39.524,0,0,1-13.072-6.142l5.775-12.81a39.189,39.189,0,0,0,11.235,5.565,42.2,42.2,0,0,0,13.02,2.1q7.245,0,10.71-2.152a6.5,6.5,0,0,0,3.465-5.723,5.47,5.47,0,0,0-2.048-4.357,15.522,15.522,0,0,0-5.25-2.783q-3.2-1.05-8.663-2.31a119.741,119.741,0,0,1-13.755-3.99,22.348,22.348,0,0,1-9.187-6.4q-3.832-4.41-3.832-11.76a20.457,20.457,0,0,1,3.465-11.6,23.308,23.308,0,0,1,10.447-8.242q6.982-3.045,17.063-3.045a56.5,56.5,0,0,1,13.755,1.68,40.634,40.634,0,0,1,11.76,4.83l-5.25,12.915a40.983,40.983,0,0,0-20.37-5.775q-7.14,0-10.553,2.31a7.051,7.051,0,0,0-3.412,6.09q0,3.78,3.938,5.617a61.821,61.821,0,0,0,12.022,3.622,119.746,119.746,0,0,1,13.755,3.99,22.778,22.778,0,0,1,9.188,6.3q3.833,4.3,3.833,11.655a20.07,20.07,0,0,1-3.518,11.5,23.633,23.633,0,0,1-10.553,8.242Q218.818,334.26,208.737,334.26Zm53.865-60.9h-23.52V259.5h64.05v13.86h-23.52V333H262.6Zm78.33-13.86a40.831,40.831,0,0,1,16.958,3.255,25.193,25.193,0,0,1,11.077,9.24,27.707,27.707,0,0,1,0,28.3,24.743,24.743,0,0,1-11.077,9.24,41.413,41.413,0,0,1-16.958,3.2h-14.8V333h-17.01V259.5Zm-.945,39.375q7.665,0,11.655-3.307t3.99-9.4q0-6.195-3.99-9.5t-11.655-3.308h-13.86v25.515Zm78.435,35.385a42.9,42.9,0,0,1-20.633-4.935,36.627,36.627,0,0,1-14.385-13.6,39.094,39.094,0,0,1,0-38.955,36.627,36.627,0,0,1,14.385-13.6,45.488,45.488,0,0,1,41.212,0,37.487,37.487,0,0,1,0,66.15A42.6,42.6,0,0,1,418.423,334.26Zm0-14.49a23.323,23.323,0,0,0,11.76-2.992,21.474,21.474,0,0,0,8.242-8.348,26.284,26.284,0,0,0,0-24.36,21.474,21.474,0,0,0-8.242-8.348,24.6,24.6,0,0,0-23.52,0,21.474,21.474,0,0,0-8.242,8.348,26.284,26.284,0,0,0,0,24.36,21.474,21.474,0,0,0,8.242,8.348A23.324,23.324,0,0,0,418.423,319.77ZM535.708,259.5V333H521.742L485.1,288.375V333H468.3V259.5h14.07l36.54,44.625V259.5Zm71.19,59.85V333h-56.91V259.5h55.545v13.65h-38.64v15.96h34.125v13.23H566.893v17.01Zm10.4-59.85h33.39a46.927,46.927,0,0,1,21.158,4.568,34.2,34.2,0,0,1,14.28,12.862,39.194,39.194,0,0,1,0,38.64,34.2,34.2,0,0,1-14.28,12.862A46.927,46.927,0,0,1,650.682,333h-33.39Zm32.55,59.535q11.025,0,17.587-6.143t6.563-16.642q0-10.5-6.562-16.642t-17.587-6.143H634.3v45.57Z" transform="translate(245.652 2056.405)" fill="#fff"/>
      <g id="Rectangle_60" data-name="Rectangle 60" transform="translate(184 2056)" fill="none" stroke="#fff" stroke-width="13">
        <rect width="829" height="395" stroke="none"/>
        <rect x="6.5" y="6.5" width="816" height="382" fill="none"/>
      </g>
      <g id="Mask_Group_6" data-name="Mask Group 6" transform="translate(-348 -1636)" clip-path="url(#clip-path)">
        <line id="Line_12" data-name="Line 12" y1="423" x2="612" transform="translate(531.5 4079.5)" fill="none" stroke="#fff" stroke-width="13"/>
      </g>
      <g id="Mask_Group_7" data-name="Mask Group 7" transform="translate(-367 -1625)" clip-path="url(#clip-path-2)">
        <line id="Line_13" data-name="Line 13" y1="423" x2="612" transform="translate(837.5 3270.5)" fill="none" stroke="#fff" stroke-width="13"/>
      </g>
    </g>
  </g>
</svg>
