<?xml version="1.0" encoding="utf-8"?>
<!-- Generator: Adobe Illustrator 23.0.1, SVG Export Plug-In . SVG Version: 6.00 Build 0)  -->
<svg version="1.1" id="Layer_1" xmlns="http://www.w3.org/2000/svg" xmlns:xlink="http://www.w3.org/1999/xlink" x="0px" y="0px"
	 viewBox="0 0 255.9 255.5" style="enable-background:new 0 0 255.9 255.5;" xml:space="preserve">
<style type="text/css">
	.st0{fill:none;stroke:#28A6EA;stroke-width:2;}
	.st1{fill:#28A6EA;}
	.st2{fill:none;}
</style>
<g id="Group_357" transform="translate(1 1.001)">
	<path id="Subtraction_2" class="st0" d="M127.2,253.5c-8.6,0-17.2-0.9-25.6-2.6c-8.2-1.7-16.2-4.1-23.8-7.4
		c-7.6-3.2-14.8-7.1-21.6-11.7c-6.8-4.5-13.1-9.7-18.8-15.5c-5.8-5.7-11-12-15.6-18.8c-4.6-6.8-8.5-14-11.7-21.5
		c-3.3-7.7-5.7-15.6-7.4-23.8c-1.7-8.4-2.6-17-2.6-25.5c0-8.6,0.9-17.1,2.6-25.5C4.2,93,6.7,85.1,10,77.4
		c3.2-7.5,7.1-14.7,11.7-21.5c4.6-6.7,9.7-13,15.5-18.8c5.7-5.7,12-10.9,18.8-15.5c6.8-4.6,14-8.5,21.5-11.7
		c7.7-3.2,15.6-5.7,23.8-7.4c8.4-1.7,17-2.6,25.5-2.6c8.6,0,17.2,0.9,25.6,2.6c8.2,1.7,16.2,4.1,23.8,7.4
		c7.6,3.2,14.8,7.1,21.6,11.7c6.8,4.5,13.1,9.7,18.8,15.5c5.8,5.7,11,12,15.6,18.8c4.6,6.8,8.5,14,11.7,21.5
		c3.3,7.7,5.7,15.6,7.4,23.8c1.7,8.4,2.6,17,2.6,25.5c0,8.6-0.9,17.1-2.6,25.5c-1.7,8.2-4.1,16.1-7.4,23.8
		c-3.2,7.5-7.1,14.7-11.7,21.5c-4.6,6.7-9.7,13-15.5,18.8c-5.7,5.7-12,10.9-18.8,15.5c-6.8,4.6-14,8.5-21.5,11.7
		c-7.7,3.2-15.6,5.7-23.8,7.4C144.3,252.6,135.7,253.5,127.2,253.5z M59.2,187.5L59.2,187.5l6.8,6.8l-12.1,12.1
		c4.8,4.4,10,8.4,15.6,11.9c5.6,3.5,11.4,6.5,17.5,9c12.6,5.1,26.1,7.7,39.7,7.6c13.6,0,27.1-2.6,39.7-7.6c6.1-2.5,12-5.5,17.5-9
		c5.5-3.5,10.7-7.5,15.6-11.9l-12.1-12.1l6.8-6.8l12.1,12.1c4-4.4,7.7-9.1,11.1-14c3.4-5,6.3-10.3,8.6-15.8l-16.1-6.4l2-4.4
		l15.7,6.4c4.1-10.7,6.4-22,6.8-33.4h-16.9v-10.1h16.9c-0.2-6-1-11.9-2.3-17.8c-1.3-5.7-2.9-11.4-5-16.8l-15.7,6.8l-2-4.4l15.7-6.8
		c-2.7-6.1-6-11.9-9.8-17.4c-3.8-5.5-8.1-10.5-12.8-15.2c-4.7-4.7-9.9-8.9-15.4-12.6c-5.5-3.7-11.4-6.9-17.5-9.5l-6.4,16.1l-4.4-2
		l6.4-15.7c-10.7-4.1-22-6.4-33.4-6.8v16.5h-10.1V18.9c-6,0.2-11.9,1-17.8,2.3c-5.7,1.3-11.4,2.9-16.8,5l6.8,15.7l-4.8,2.4
		l-6.8-16.1C72.1,33,62.4,39.4,53.9,47.1L66,59.2L59.1,66L47.1,53.9C39,62.7,32.5,72.8,27.8,83.7l16.1,6.4l-2,4.4l-15.7-6
		c-4.1,10.7-6.4,22-6.8,33.4h16.9V132H18.9c0.2,6,1,11.9,2.3,17.8c1.3,5.7,2.9,11.4,5,16.8l15.7-6.8l2,4.4L28.2,171
		c4.8,10.4,11.2,20.1,18.9,28.6L59.2,187.5L59.2,187.5z M126.8,146.5c-5.2,0-10.1-2-13.7-5.7c-1.7-1.8-3.1-3.9-4.1-6.1
		c-1-2.4-1.5-4.9-1.5-7.4c0-5.2,2-10.1,5.7-13.7c1.8-1.7,3.9-3.1,6.1-4.1c2.4-1,4.9-1.5,7.4-1.5c0.5-0.1,1-0.1,1.5-0.1
		c3,0,6,0.9,8.5,2.5l58.7-52.3l-51.9,59.6c1.6,3,2.5,6.3,2.4,9.7c0,5.2-2,10.1-5.7,13.7c-1.8,1.7-3.9,3.1-6.1,4.1
		C131.8,146,129.3,146.5,126.8,146.5L126.8,146.5z M127.2,120.5c-3.6,0-6.5,2.9-6.5,6.5c0,3.6,2.9,6.5,6.5,6.5
		c3.6,0,6.5-2.9,6.5-6.5C133.7,123.4,130.8,120.5,127.2,120.5L127.2,120.5z"/>
</g>
<g>
	<g id="Group_393" transform="translate(-1202 -538)">
		<circle id="Ellipse_65" class="st1" cx="1298" cy="719" r="9"/>
		<circle id="Ellipse_66" class="st1" cx="1320" cy="719" r="9"/>
		<circle id="Ellipse_67" class="st1" cx="1341" cy="719" r="9"/>
		<g id="Ellipse_68" transform="translate(1266 538)">
			<circle class="st2" cx="96" cy="181" r="9"/>
			<circle class="st0" cx="96" cy="181" r="8"/>
		</g>
	</g>
</g>
</svg>
