<svg xmlns="http://www.w3.org/2000/svg" viewBox="0 0 25.626 21.457">
  <defs>
    <style>
      .cls-1 {
        fill: #fff;
      }
    </style>
  </defs>
  <path id="Twitter_3_" class="cls-1" d="M133.237,25.01a9.5,9.5,0,0,1-3.348,1.3,5.268,5.268,0,0,0-3.827-1.708A5.338,5.338,0,0,0,120.8,30a7.532,7.532,0,0,0,.137,1.23,14.8,14.8,0,0,1-10.8-5.6,5.244,5.244,0,0,0-.683,2.733,5.691,5.691,0,0,0,2.323,4.51,4.858,4.858,0,0,1-2.392-.683v.068a5.3,5.3,0,0,0,4.237,5.262,4.407,4.407,0,0,1-1.367.205,4.2,4.2,0,0,1-.957-.068,5.36,5.36,0,0,0,4.92,3.758,10.315,10.315,0,0,1-6.492,2.323,7.428,7.428,0,0,1-1.23-.068,14.718,14.718,0,0,0,8.064,2.392c9.635,0,14.965-8.2,14.965-15.307v-.683a10.165,10.165,0,0,0,2.6-2.8,9.379,9.379,0,0,1-3.007.82A6.725,6.725,0,0,0,133.237,25.01Z" transform="translate(-108.5 -24.6)"/>
</svg>
