<?xml version="1.0" encoding="utf-8"?>
<!-- Generator: Adobe Illustrator 23.0.1, SVG Export Plug-In . SVG Version: 6.00 Build 0)  -->
<svg version="1.1" id="Layer_1" xmlns="http://www.w3.org/2000/svg" xmlns:xlink="http://www.w3.org/1999/xlink" x="0px" y="0px"
	 viewBox="0 0 174.7 152.9" style="enable-background:new 0 0 174.7 152.9;" xml:space="preserve">
<style type="text/css">
	.st0{fill:none;stroke:#5C8CA5;stroke-width:2;}
</style>
<path id="Path_21512" class="st0" d="M148,26.1C132.9,10.9,112.6,2,91.1,1c-0.5,0-1,0.4-1,0.9h-5.6c0-0.5-0.5-0.9-1-0.9
	C35.8,3.1-1.1,43.5,1.1,91.2c0.6,12.5,3.8,24.8,9.6,35.9c1.9,3.7,6.9,9.7,10.8,14c8.8,9.5,12.9,10.8,15.9,10.8h99.7
	c4.8,0,10-3.4,16.7-11c3.8-4.3,7.2-9,10.1-13.9l0,0C181.4,93.5,174.9,52.6,148,26.1z M38.7,138.4c-0.2,0-0.4-0.1-0.6-0.2
	c-3.6-2.5-13.1-12.8-15.6-17.4c-1.4-2.6-2.6-5.4-3.7-8.1c2.9-5,7.5-8.8,13-10.6c10.1-3.5,22.4-3.3,29.8-2.2c3,6,8,10.8,14.2,13.5
	l2.9,25.1L38.7,138.4z M41.1,87.9c0-1.5,1.2-2.8,2.8-2.8s2.8,1.2,2.8,2.8c0,1.5-1.2,2.8-2.8,2.8c0,0,0,0,0,0
	C42.3,90.7,41.1,89.5,41.1,87.9z M105.7,87.3c0,10.2-8.2,18.4-18.4,18.4s-18.4-8.2-18.4-18.4s8.2-18.4,18.4-18.4c0,0,0,0,0,0
	C97.5,68.9,105.7,77.1,105.7,87.3L105.7,87.3z M152,120.7c-2.7,5.2-11.5,15.7-15.1,17.5c-0.1,0.1-0.3,0.1-0.4,0.1H95.7l2.9-25.1
	c6.2-2.7,11.2-7.5,14.3-13.5c7.4-1.1,19.5-1.2,29.5,2.2c5.6,1.8,10.3,5.7,13.1,10.9C154.5,115.6,153.4,118.2,152,120.7L152,120.7z
	 M128,87.9c0-1.5,1.2-2.8,2.8-2.8s2.8,1.2,2.8,2.8c0,1.5-1.2,2.8-2.8,2.8l0,0C129.3,90.7,128,89.5,128,87.9L128,87.9z M107.7,67.4
	c-10.9-11.3-28.8-11.6-40.1-0.7c-0.2,0.2-0.4,0.4-0.6,0.6L15,78.7c4.2-35.2,33.2-62.3,68.6-64.1c0.5,0,0.9-0.4,1-1v-0.2h5.6v0.2
	c0,0.5,0.4,1,0.9,1c0,0,0,0,0,0c35.4,2.1,64.2,29.1,68.6,64.3L107.7,67.4z"/>
</svg>
