<svg xmlns="http://www.w3.org/2000/svg" viewBox="0 0 21.653 25.639">
  <defs>
    <style>
      .cls-1 {
        fill: #fff;
      }
    </style>
  </defs>
  <g id="Group_326" data-name="Group 326" transform="translate(0)">
    <g id="Group_325" data-name="Group 325">
      <path id="Path_21418" data-name="Path 21418" class="cls-1" d="M21.258,39.731a2.7,2.7,0,0,0-2.346-2.12A70.527,70.527,0,0,0,10.8,37.3a70.527,70.527,0,0,0-8.113.311,2.766,2.766,0,0,0-2.346,2.12A25.675,25.675,0,0,0,0,44.848a23.737,23.737,0,0,0,.367,5.117,2.7,2.7,0,0,0,2.346,2.12,70.524,70.524,0,0,0,8.113.311,70.524,70.524,0,0,0,8.113-.311,2.766,2.766,0,0,0,2.346-2.12,23.737,23.737,0,0,0,.367-5.117A23.747,23.747,0,0,0,21.258,39.731ZM6.162,41H4.608v8.311H3.166V41H1.611V39.646H6.162Zm3.958,8.311H8.82v-.792a2.073,2.073,0,0,1-1.5.876.813.813,0,0,1-.848-.537,3.314,3.314,0,0,1-.113-1.074V42.106h1.3v5.823c.028.2.141.311.311.311.254,0,.537-.2.82-.622V42.106h1.3l.028,7.208ZM15.1,47.166a5.484,5.484,0,0,1-.141,1.442,1.049,1.049,0,0,1-1.046.82,1.833,1.833,0,0,1-1.357-.792v.707h-1.3v-9.7h1.3v3.166a1.83,1.83,0,0,1,1.357-.792,1.049,1.049,0,0,1,1.046.82,5.484,5.484,0,0,1,.141,1.442Zm4.919-1.216H17.385v1.272c0,.678.226.989.678.989.311,0,.509-.17.594-.537,0-.085.028-.367.028-.876h1.329V47c0,.424-.028.707-.028.848a1.938,1.938,0,0,1-.311.791,1.8,1.8,0,0,1-1.583.792,1.9,1.9,0,0,1-1.583-.735,2.774,2.774,0,0,1-.424-1.7V44.48a2.787,2.787,0,0,1,.4-1.7,2.012,2.012,0,0,1,3.109,0,2.787,2.787,0,0,1,.4,1.7l.028,1.47Z" transform="translate(0 -26.756)"/>
      <path id="Path_21419" data-name="Path 21419" class="cls-1" d="M62.25,58.2c-.424,0-.65.339-.65.989v.678h1.3v-.678C62.9,58.511,62.674,58.2,62.25,58.2Z" transform="translate(-44.187 -41.748)"/>
      <path id="Path_21420" data-name="Path 21420" class="cls-1" d="M45.05,58.2a1,1,0,0,0-.65.311v4.41a.879.879,0,0,0,.65.311c.367,0,.565-.311.565-.961V59.161C45.644,58.511,45.446,58.2,45.05,58.2Z" transform="translate(-31.849 -41.748)"/>
      <path id="Path_21421" data-name="Path 21421" class="cls-1" d="M46.718,16.206a2.03,2.03,0,0,0,1.5-.9v.792h1.329V8.8H48.216v5.569c-.283.424-.565.622-.848.622-.17,0-.283-.113-.311-.311a1.773,1.773,0,0,1-.028-.509V8.8H45.7v5.767a4.2,4.2,0,0,0,.113,1.074A.918.918,0,0,0,46.718,16.206Z" transform="translate(-32.782 -6.312)"/>
      <path id="Path_21422" data-name="Path 21422" class="cls-1" d="M12.066,5.823V9.781h1.47V5.823L15.288,0h-1.47l-.989,3.844L11.755,0H10.2l.933,2.714A21.72,21.72,0,0,1,12.066,5.823Z" transform="translate(-7.317)"/>
      <path id="Path_21423" data-name="Path 21423" class="cls-1" d="M30.25,16.063a1.879,1.879,0,0,0,1.555-.735,2.811,2.811,0,0,0,.424-1.724V11.059a2.811,2.811,0,0,0-.424-1.724A1.773,1.773,0,0,0,30.25,8.6a1.826,1.826,0,0,0-1.526.735,2.812,2.812,0,0,0-.424,1.724V13.6a2.869,2.869,0,0,0,.424,1.724A1.755,1.755,0,0,0,30.25,16.063Zm-.65-5.286c0-.678.2-1.018.622-1.018s.622.339.622,1.018v3.081c0,.678-.2,1.018-.622,1.018s-.622-.339-.622-1.018Z" transform="translate(-20.3 -6.169)"/>
    </g>
  </g>
</svg>
